<svg xmlns="http://www.w3.org/2000/svg" viewBox="-.5 -.5 1064 831">
  <g class="prefix__wall"><text x="200" y="93" font-family="Helvetica" font-weight="bold" pointer-events="none"
      text-anchor="middle" font-size="32">Туалет</text>
    <path d="M418.16 0v163H.01v-10h408.15V0z" stroke="#000" stroke-miterlimit="10" pointer-events="all" />
    <path d="M0 520.65V0h1062v520.65h-10V10H10v510.65z" stroke="#000" stroke-miterlimit="10" pointer-events="all" />
    <path fill="#fff" stroke="#000" pointer-events="all" d="M405.98 161.29h-53.85v-5h53.85z" />
    <path d="M800 515.56V815H0V515.56h10V805h780V515.56zM350.12 163v100H10.34v-10h329.78v-90z" stroke="#000"
      stroke-miterlimit="10" pointer-events="all" />
    <path fill="rgba(166, 166, 166, 1)" stroke="#000" pointer-events="none" d="M289.89 469.27h45.91v45.91h-45.91z" />
    <path stroke="#000" pointer-events="none" d="M800 515.5h261.43v10H800z" />
    <path fill="#fff" stroke="#000" pointer-events="none"
      d="M360.48 791h87.31v38h-87.31zM472.01 684h317.03v120H472.01z" />
    <path d="M405.98 156.29c0-29.74-24.11-53.85-53.85-53.85v53.85" fill="none" stroke="#000" stroke-miterlimit="10"
      pointer-events="all" /><text x="313" y="500" font-family="Helvetica" font-weight="bold" pointer-events="none"
      text-anchor="middle" font-size="20">Кол.</text><text x="630" y="755" font-family="Helvetica" font-weight="bold"
      pointer-events="none" text-anchor="middle" font-size="32">Сцена</text><text x="403" y="820"
      font-family="Helvetica" font-weight="bold" text-anchor="middle" font-size="32">Вход</text>
  </g>
  <g class="prefix__bar" pointer-events="none">
    <path
      d="M490.57 111.39l-1.83-15.09c-.35-2.22.61-4.44 2.44-5.66a58.75 58.75 0 0118.9 0c1.83 1.22 2.78 3.44 2.44 5.66l-1.83 15.09c-.35 1.67-2.1 2.95-4.27 3.14h-11.58c-2.18-.19-3.92-1.47-4.27-3.14zm16.35 3.14l3.13 3.99m-6.61-3.99l1.04 4.56m-5.22-4.56l-1.39 4.56m-2.09-4.56l-3.48 3.99m-1.04-.21a61.852 61.852 0 0019.49 0l2.78 2.51a61.498 61.498 0 01-25.06 0zM534.57 118.39l-1.83-15.09c-.35-2.22.61-4.44 2.44-5.66a58.75 58.75 0 0118.9 0c1.83 1.22 2.78 3.44 2.44 5.66l-1.83 15.09c-.35 1.67-2.1 2.95-4.27 3.14h-11.58c-2.18-.19-3.92-1.47-4.27-3.14zm16.35 3.14l3.13 3.99m-6.61-3.99l1.04 4.56m-5.22-4.56l-1.39 4.56m-2.09-4.56l-3.48 3.99m-1.04-.21a61.852 61.852 0 0019.49 0l2.78 2.51a61.498 61.498 0 01-25.06 0zM579 122.39l-1.83-15.09c-.35-2.22.61-4.44 2.44-5.66a58.75 58.75 0 0118.9 0c1.83 1.22 2.78 3.44 2.44 5.66l-1.83 15.09c-.35 1.67-2.1 2.95-4.27 3.14h-11.58c-2.18-.19-3.92-1.47-4.27-3.14zm16.35 3.14l3.13 3.99m-6.61-3.99l1.04 4.56m-5.22-4.56l-1.39 4.56m-2.09-4.56l-3.48 3.99m-1.04-.21a61.852 61.852 0 0019.49 0l2.78 2.51a61.498 61.498 0 01-25.06 0zM661.16 123.39l-1.83-15.09c-.35-2.22.61-4.44 2.44-5.66a58.75 58.75 0 0118.9 0c1.83 1.22 2.78 3.44 2.44 5.66l-1.83 15.09c-.35 1.67-2.1 2.95-4.27 3.14h-11.58c-2.18-.19-3.92-1.47-4.27-3.14zm16.35 3.14l3.13 3.99m-6.61-3.99l1.04 4.56m-5.22-4.56l-1.39 4.56m-2.09-4.56l-3.48 3.99m-1.04-.21a61.852 61.852 0 0019.49 0l2.78 2.51a61.498 61.498 0 01-25.06 0zM620.14 123.39l-1.83-15.09c-.35-2.22.61-4.44 2.44-5.66a58.75 58.75 0 0118.9 0c1.83 1.22 2.78 3.44 2.44 5.66l-1.83 15.09c-.35 1.67-2.1 2.95-4.27 3.14h-11.58c-2.18-.19-3.92-1.47-4.27-3.14zm16.35 3.14l3.13 3.99m-6.61-3.99l1.04 4.56m-5.22-4.56l-1.39 4.56m-2.09-4.56l-3.48 3.99m-1.04-.21a61.852 61.852 0 0019.49 0l2.78 2.51a61.498 61.498 0 01-25.06 0zM703.14 122.39l-1.83-15.09c-.35-2.22.61-4.44 2.44-5.66a58.75 58.75 0 0118.9 0c1.83 1.22 2.78 3.44 2.44 5.66l-1.83 15.09c-.35 1.67-2.1 2.95-4.27 3.14h-11.58c-2.18-.19-3.92-1.47-4.27-3.14zm16.35 3.14l3.13 3.99m-6.61-3.99l1.04 4.56m-5.22-4.56l-1.39 4.56m-2.09-4.56l-3.48 3.99m-1.04-.21a61.852 61.852 0 0019.49 0l2.78 2.51a61.498 61.498 0 01-25.06 0zM449.97 99.39l-1.83-15.09c-.35-2.22.61-4.44 2.44-5.66a58.75 58.75 0 0118.9 0c1.83 1.22 2.78 3.44 2.44 5.66l-1.83 15.09c-.35 1.67-2.1 2.95-4.27 3.14h-11.58c-2.18-.19-3.92-1.47-4.27-3.14zm16.35 3.14l3.13 3.99m-6.61-3.99l1.04 4.56m-5.22-4.56l-1.39 4.56m-2.09-4.56l-3.48 3.99m-1.04-.21a61.852 61.852 0 0019.49 0l2.78 2.51a61.498 61.498 0 01-25.06 0zM745.14 118.39l-1.83-15.09c-.35-2.22.61-4.44 2.44-5.66a58.75 58.75 0 0118.9 0c1.83 1.22 2.78 3.44 2.44 5.66l-1.83 15.09c-.35 1.67-2.1 2.95-4.27 3.14h-11.58c-2.18-.19-3.92-1.47-4.27-3.14zm16.35 3.14l3.13 3.99m-6.61-3.99l1.04 4.56m-5.22-4.56l-1.39 4.56m-2.09-4.56l-3.48 3.99m-1.04-.21a61.852 61.852 0 0019.49 0l2.78 2.51a61.498 61.498 0 01-25.06 0zM829.14 99.39l-1.83-15.09c-.35-2.22.61-4.44 2.44-5.66a58.75 58.75 0 0118.9 0c1.83 1.22 2.78 3.44 2.44 5.66l-1.83 15.09c-.35 1.67-2.1 2.95-4.27 3.14h-11.58c-2.18-.19-3.92-1.47-4.27-3.14zm16.35 3.14l3.13 3.99m-6.61-3.99l1.04 4.56m-5.22-4.56l-1.39 4.56m-2.09-4.56l-3.48 3.99m-1.04-.21a61.852 61.852 0 0019.49 0l2.78 2.51a61.498 61.498 0 01-25.06 0zM787.14 111.39l-1.83-15.09c-.35-2.22.61-4.44 2.44-5.66a58.75 58.75 0 0118.9 0c1.83 1.22 2.78 3.44 2.44 5.66l-1.83 15.09c-.35 1.67-2.1 2.95-4.27 3.14h-11.58c-2.18-.19-3.92-1.47-4.27-3.14zm16.35 3.14l3.13 3.99m-6.61-3.99l1.04 4.56m-5.22-4.56l-1.39 4.56m-2.09-4.56l-3.48 3.99m-1.04-.21a61.852 61.852 0 0019.49 0l2.78 2.51a61.498 61.498 0 01-25.06 0z"
      fill="#fff" stroke="#000" stroke-linejoin="round" stroke-miterlimit="10" />
    <path d="M866.93 10.44q0 82.16-223.89 82.16-223.9 0-223.9-82.16z" fill="#fff" stroke="#000"
      stroke-miterlimit="10" /><text x="650" y="60" font-family="Helvetica" font-weight="bold" text-anchor="middle"
      font-size="32">Бар</text>
  </g>
  <g data-table="1" pointer-events="none">
    <path
      d="M68.791 670.045l-3.138-14.873c-.542-2.18.221-4.476 1.938-5.85a59.324 59.324 0 0118.828-1.648c1.93 1.056 3.079 3.184 2.924 5.426l-.508 15.192c-.203 1.694-1.834 3.132-3.98 3.51l-11.535 1.01c-2.189 0-4.034-1.133-4.529-2.767zm16.563 1.713l3.465 3.692m-6.932-3.388l1.433 4.442m-5.597-4.078l-.988 4.654m-2.479-4.35l-3.12 4.267m-1.054-.118c6.516.474 13.081-.1 19.416-1.699l2.999 2.267a61.547 61.547 0 01-24.975 2.185z"
      fill="#fff" stroke="#000" stroke-linejoin="round" stroke-miterlimit="10" />
    <path
      d="M47.153 659.68l5.896-13.893c.797-2.08 2.734-3.514 4.94-3.637a60.138 60.138 0 0116.481 9.515c.997 1.973.724 4.367-.68 6.097l-9.083 12.053c-1.142 1.258-3.297 1.491-5.289.561l-10.106-5.835c-1.802-1.26-2.678-3.243-2.16-4.86zm12.698 10.946l.762 5m-3.793-6.75l-1.35 4.44m-2.296-6.545l-3.472 3.214m.432-4.969l-5.006 1.67m-.804-.706a62.738 62.738 0 0017 9.815l1.175 3.565a62.733 62.733 0 01-21.859-12.62zM45.208 612.948l14.354 4.663c2.142.613 3.739 2.417 4.054 4.605a60.138 60.138 0 01-8.043 17.247c-1.878 1.165-4.287 1.101-6.133-.146l-12.799-7.998c-1.352-1.028-1.773-3.155-1.02-5.22l4.933-10.577c1.097-1.904 2.997-2.95 4.654-2.574zm-9.798 13.604l-4.915 1.195m6.395-4.367l-4.54-.959m6.319-2.857l-3.505-3.179m4.988-.002l-2.1-4.841m.633-.863a62.738 62.738 0 00-8.296 17.79l-3.449 1.482a62.733 62.733 0 0110.667-22.875zM89.492 602.186L90 617.378c.155 2.242-.994 4.37-2.924 5.426a59.324 59.324 0 01-18.828-1.648c-1.717-1.375-2.48-3.67-1.937-5.85l3.138-14.874c.494-1.633 2.35-2.766 4.528-2.766l11.536 1.01c2.155.379 3.776 1.816 3.98 3.51zm-16.013-4.563l-2.771-4.238m6.238 4.541l-.64-4.623m4.804 4.987l1.781-4.411m1.686 4.715l3.813-3.662m1.018.3a61.265 61.265 0 00-19.416-1.699l-2.56-2.753a61.547 61.547 0 0124.975 2.185z"
      fill="#fff" stroke="#000" stroke-linejoin="round" stroke-miterlimit="10" />
    <path
      d="M36.458 638.494l12.799-7.998c1.846-1.247 4.254-1.311 6.133-.146a60.138 60.138 0 018.042 17.247c-.314 2.188-1.912 3.992-4.053 4.605l-14.355 4.663c-1.656.375-3.556-.67-4.654-2.575l-4.931-10.576c-.754-2.065-.333-4.192 1.019-5.22zm4.124 16.25l-2.245 4.533m.766-7.705l-3.653 2.861m1.873-6.677l-4.688.641m3.205-3.822l-5.06-1.503m-.252-1.04a62.738 62.738 0 008.296 17.79l-1.083 3.595a62.733 62.733 0 01-10.667-22.875zM65.287 600.87l9.084 12.053c1.403 1.73 1.676 4.124.68 6.097a60.138 60.138 0 01-16.481 9.515c-2.207-.123-4.144-1.557-4.94-3.637l-5.897-13.893c-.518-1.618.357-3.601 2.159-4.861l10.106-5.835c1.992-.93 4.148-.697 5.29.56zm-15.828 5.524l-4.712-1.84m7.743.09l-3.17-3.39m6.816 1.285l-1.048-4.614m4.088 2.859l1.056-5.17m1.014-.344a62.738 62.738 0 00-17 9.815l-3.675-.765A62.733 62.733 0 0162.43 591.7z"
      fill="#fff" stroke="#000" stroke-linejoin="round" stroke-miterlimit="10" />
    <ellipse cx="72.63" cy="635.36" rx="31.429" ry="31.655" fill="#fff" stroke="#000" /><text x="71.93" y="641.86"
      font-family="Helvetica" font-weight="bold" text-anchor="middle" font-size="22">1</text>
  </g>
  <g data-table="2" pointer-events="none">
    <path
      d="M47.261 554.045l5.888-13.898c.797-2.08 2.742-3.509 4.94-3.637a60.138 60.138 0 0116.481 9.515c.997 1.973.724 4.367-.68 6.097l-9.083 12.053c-1.133 1.263-3.297 1.491-5.289.561l-10.106-5.835c-1.793-1.255-2.678-3.243-2.15-4.856zm12.69 10.941l.762 5m-3.793-6.75l-1.35 4.44m-2.296-6.545l-3.472 3.214m.441-4.964l-5.015 1.666m-.804-.707a62.738 62.738 0 0017 9.815l1.184 3.57A62.782 62.782 0 0140.74 561.1z"
      fill="#fff" stroke="#000" stroke-linejoin="round" stroke-miterlimit="10" />
    <path
      d="M68.872 564.406l-3.139-14.873c-.542-2.18.221-4.476 1.938-5.851a59.324 59.324 0 0118.828-1.647c1.93 1.056 3.079 3.184 2.924 5.426l-.508 15.192c-.203 1.694-1.824 3.13-3.98 3.51l-11.535 1.01c-2.179-.001-4.034-1.134-4.528-2.767zm16.562 1.713l3.475 3.691m-6.942-3.387l1.433 4.442m-5.587-4.079l-.988 4.654m-2.489-4.35l-3.12 4.268m-1.054-.118c6.516.474 13.081-.1 19.416-1.699l2.999 2.267a61.547 61.547 0 01-24.975 2.185zM45.303 507.317l14.359 4.654c2.142.613 3.735 2.426 4.054 4.605a60.138 60.138 0 01-8.043 17.247c-1.878 1.165-4.287 1.101-6.133-.146l-12.799-7.998c-1.356-1.019-1.773-3.155-1.02-5.22l4.933-10.577c1.093-1.895 2.997-2.95 4.65-2.565zm-9.793 13.595l-4.915 1.195m6.395-4.367l-4.54-.959m6.319-2.857l-3.505-3.179m4.984.007l-2.097-4.85m.634-.863a62.738 62.738 0 00-8.296 17.79l-3.453 1.491a62.782 62.782 0 0110.671-22.884zM89.592 496.547l.508 15.192c.155 2.242-.994 4.37-2.924 5.425a59.324 59.324 0 01-18.828-1.647c-1.717-1.375-2.48-3.67-1.937-5.85l3.138-14.874c.494-1.633 2.34-2.767 4.528-2.766l11.536 1.01c2.145.378 3.776 1.815 3.98 3.51zm-16.013-4.563l-2.781-4.239m6.248 4.542l-.64-4.623m4.794 4.986l1.781-4.411m1.696 4.715l3.813-3.661m1.018.3a61.265 61.265 0 00-19.416-1.699l-2.56-2.753a61.547 61.547 0 0124.975 2.185z"
      fill="#fff" stroke="#000" stroke-linejoin="round" stroke-miterlimit="10" />
    <path
      d="M65.379 495.235l9.092 12.048c1.403 1.73 1.668 4.129.68 6.097a60.138 60.138 0 01-16.481 9.515c-2.207-.123-4.144-1.557-4.94-3.637l-5.897-13.893c-.527-1.613.357-3.601 2.159-4.861l10.106-5.835c1.983-.925 4.148-.697 5.28.566zm-15.82 5.519l-4.712-1.84m7.743.09l-3.17-3.39m6.816 1.285l-1.048-4.614m4.079 2.864l1.065-5.176m1.014-.343a62.738 62.738 0 00-17 9.815l-3.684-.76A62.782 62.782 0 0162.53 486.06zM36.562 532.863l12.795-8.007c1.846-1.247 4.259-1.302 6.133-.146a60.138 60.138 0 018.042 17.247c-.314 2.188-1.912 3.992-4.053 4.605l-14.355 4.663c-1.652.384-3.556-.67-4.654-2.575l-4.931-10.576c-.75-2.056-.333-4.192 1.023-5.211zm4.12 16.24l-2.245 4.534m.766-7.705l-3.653 2.861m1.873-6.677l-4.688.641m3.21-3.813l-5.064-1.512m-.253-1.04a62.738 62.738 0 008.296 17.79l-1.079 3.604a62.782 62.782 0 01-10.67-22.884z"
      fill="#fff" stroke="#000" stroke-linejoin="round" stroke-miterlimit="10" />
    <ellipse cx="72.73" cy="529.72" rx="31.429" ry="31.655" fill="#fff" stroke="#000" /><text x="72.03" y="536.22"
      font-family="Helvetica" font-weight="bold" text-anchor="middle" font-size="22">2</text>
  </g>
  <g data-table="3" pointer-events="none">
    <path
      d="M47.348 448.979l5.901-13.902c.797-2.08 2.742-3.509 4.94-3.637a60.138 60.138 0 0116.481 9.515c.997 1.973.724 4.367-.68 6.097l-9.088 12.062c-1.128 1.254-3.292 1.482-5.284.552l-10.106-5.835c-1.802-1.26-2.678-3.243-2.164-4.852zm12.703 10.937l.757 5.01m-3.788-6.76l-1.35 4.44m-2.296-6.545l-3.472 3.214m.432-4.969l-5.01 1.68m-.8-.716a62.738 62.738 0 0017 9.815l1.184 3.57A62.782 62.782 0 0140.84 456.03z"
      fill="#fff" stroke="#000" stroke-linejoin="round" stroke-miterlimit="10" />
    <path
      d="M68.972 459.336l-3.139-14.873c-.542-2.18.221-4.476 1.938-5.851a59.324 59.324 0 0118.828-1.647c1.93 1.056 3.079 3.184 2.924 5.426l-.508 15.192c-.203 1.694-1.824 3.13-3.98 3.51l-11.535 1.01c-2.179-.001-4.034-1.134-4.528-2.767zm16.562 1.713l3.476 3.701m-6.943-3.397l1.433 4.442m-5.597-4.078l-.988 4.654m-2.479-4.35l-3.119 4.277m-1.055-.128c6.516.474 13.081-.1 19.416-1.699l2.999 2.267a61.547 61.547 0 01-24.975 2.185zM45.399 402.234l14.363 4.667c2.142.613 3.735 2.426 4.054 4.605a60.138 60.138 0 01-8.043 17.247c-1.878 1.165-4.287 1.101-6.133-.146l-12.808-8.002c-1.347-1.015-1.764-3.151-1.01-5.216l4.932-10.577c1.097-1.904 2.997-2.95 4.645-2.578zm-9.789 13.608l-4.924 1.19m6.404-4.362l-4.54-.959m6.319-2.857l-3.505-3.179m4.988-.002l-2.11-4.845m.643-.859a62.738 62.738 0 00-8.296 17.79l-3.453 1.491a62.782 62.782 0 0110.671-22.884zM89.692 391.477l.508 15.192c.155 2.242-.994 4.37-2.924 5.425a59.324 59.324 0 01-18.828-1.647c-1.717-1.375-2.48-3.67-1.937-5.85l3.138-14.874c.494-1.633 2.34-2.767 4.528-2.766l11.536 1.01c2.145.378 3.776 1.815 3.98 3.51zm-16.013-4.563l-2.78-4.249m6.247 4.552l-.64-4.623m4.804 4.987l1.781-4.411m1.686 4.714l3.814-3.671m1.017.31a61.265 61.265 0 00-19.416-1.699l-2.56-2.753a61.547 61.547 0 0124.975 2.185z"
      fill="#fff" stroke="#000" stroke-linejoin="round" stroke-miterlimit="10" />
    <path
      d="M65.482 390.151l9.089 12.062c1.403 1.73 1.668 4.129.68 6.097a60.138 60.138 0 01-16.481 9.515c-2.207-.123-4.144-1.557-4.94-3.637l-5.902-13.902c-.522-1.604.362-3.592 2.164-4.852l10.106-5.835c1.992-.93 4.148-.697 5.284.552zm-15.823 5.533l-4.717-1.85m7.748.1l-3.17-3.39m6.816 1.285l-1.048-4.614m4.088 2.859l1.05-5.18m1.02-.334a62.738 62.738 0 00-17 9.815l-3.684-.76A62.782 62.782 0 0162.63 380.99zM36.649 427.788l12.808-8.002c1.846-1.247 4.259-1.302 6.133-.146a60.138 60.138 0 018.042 17.247c-.314 2.188-1.912 3.992-4.053 4.605l-14.364 4.667c-1.643.38-3.547-.674-4.645-2.579l-4.931-10.576c-.754-2.065-.333-4.192 1.01-5.216zm4.133 16.246l-2.254 4.537m.775-7.71l-3.653 2.862m1.873-6.677l-4.688.641m3.205-3.822l-5.068-1.499m-.244-1.044a62.738 62.738 0 008.296 17.79l-1.079 3.604a62.782 62.782 0 01-10.67-22.884z"
      fill="#fff" stroke="#000" stroke-linejoin="round" stroke-miterlimit="10" />
    <ellipse cx="72.83" cy="424.64" rx="31.429" ry="31.655" fill="#fff" stroke="#000" /><text x="72.33" y="431.14"
      font-family="Helvetica" font-weight="bold" text-anchor="middle" font-size="22">3</text>
  </g>
  <g data-table="4" pointer-events="none">
    <path
      d="M37.55 320.84l14.003-5.656a5.66 5.66 0 016.065.921 60.732 60.732 0 014.925 18.382 5.66 5.66 0 01-4.792 3.83l-14.955 2.103c-1.697.082-3.376-1.28-4.127-3.346l-3.02-11.272c-.383-2.165.39-4.184 1.9-4.961zm1.249 16.717l-3.007 4.077m2.1-7.458L33.8 336.36m3.004-6.25l-4.728-.183m3.82-3.208l-4.731-2.355m-.069-1.069a63.346 63.346 0 005.08 18.961l-1.677 3.359a62.782 62.782 0 01-6.535-24.39z"
      fill="#fff" stroke="#000" stroke-linejoin="round" stroke-miterlimit="10" />
    <path
      d="M45.49 343.673l8.298-12.736c1.159-1.926 3.321-3.01 5.507-2.768a58.75 58.75 0 0114.478 12.15c.618 2.11-.074 4.428-1.769 5.903l-11.101 10.384c-1.342 1.054-3.505.91-5.29-.34l-8.87-7.443c-1.54-1.54-2.058-3.646-1.253-5.15zm10.506 12.915l-.159 5.075m-2.506-7.312l-2.135 4.161m-1.067-6.848l-3.996 2.6m1.33-4.837l-5.23.82m-.663-.83a61.852 61.852 0 0014.93 12.528l.524 3.716a61.547 61.547 0 01-19.204-16.114zM69.286 286.557l6.856 13.457a5.66 5.66 0 01-.39 6.122 60.732 60.732 0 01-17.882 6.509 5.66 5.66 0 01-4.234-4.44L50.24 293.49c-.23-1.683.98-3.475 2.973-4.403l10.966-3.991c2.123-.57 4.202.024 5.108 1.46zm-16.544 2.701l-4.324-2.64m7.613 1.443l-2.532-3.888m6.488 2.448l-.23-4.726m3.529 3.526l1.934-4.919m1.059-.161a63.346 63.346 0 00-18.446 6.713l-3.493-1.378a62.782 62.782 0 0123.728-8.636z"
      fill="#fff" stroke="#000" stroke-linejoin="round" stroke-miterlimit="10" />
    <path
      d="M92.027 292.11l-2.102 14.955a5.66 5.66 0 01-3.83 4.792 60.732 60.732 0 01-18.382-4.926 5.66 5.66 0 01-.922-6.065l5.657-14.003c.777-1.51 2.796-2.284 4.96-1.9l11.273 3.02c2.066.75 3.428 2.43 3.346 4.126zm-15.101-7.277l-2.027-4.643m5.408 5.549l.155-4.638m3.911 5.727l2.522-4.003m.869 4.912l4.405-2.92m.96.475a63.346 63.346 0 00-18.961-5.08l-2.07-3.133c8.47.5 16.806 2.733 24.39 6.535z"
      fill="#fff" stroke="#000" stroke-linejoin="round" stroke-miterlimit="10" />
    <path
      d="M108.223 310.144l-10.384 11.101c-1.475 1.695-3.793 2.387-5.904 1.77a58.75 58.75 0 01-12.149-14.479c-.241-2.186.842-4.348 2.768-5.507l12.736-8.298c1.504-.805 3.61-.288 5.15 1.253l7.443 8.87c1.25 1.785 1.394 3.948.34 5.29zm-8.105-14.544l1.039-4.97m1.198 7.636l2.825-3.727m-.138 6.93l4.387-1.867m-2.15 4.532l5.294.101m.507.932a61.852 61.852 0 00-12.528-14.93l.13-3.75a61.547 61.547 0 0116.114 19.204zM44.979 298.449l14.715 3.398a5.66 5.66 0 014.44 4.234 60.732 60.732 0 01-6.509 17.882 5.66 5.66 0 01-6.122.39l-13.457-6.856c-1.437-.907-2.032-2.985-1.461-5.108l3.991-10.966c.928-1.993 2.72-3.203 4.403-2.974zm-8.565 14.41l-4.802 1.615m5.999-4.904l-4.607-.56m6.047-3.396l-3.769-2.862m4.97-.437l-2.525-4.643m.557-.915a63.346 63.346 0 00-6.714 18.446l-3.301 1.79a62.782 62.782 0 018.636-23.728z"
      fill="#fff" stroke="#000" stroke-linejoin="round" stroke-miterlimit="10" />
    <ellipse cx="72.93" cy="321.88" rx="31.429" ry="31.655" fill="#fff" stroke="#000" /><text x="72.43" y="328.38"
      font-family="Helvetica" font-weight="bold" text-anchor="middle" font-size="22">4</text>
  </g>
  <g data-table="5" pointer-events="none">
    <path
      d="M177.007 280.772l8.007 12.795c1.252 1.855 1.302 4.259.146 6.133a60.138 60.138 0 01-17.247 8.042c-2.188-.314-3.988-1.903-4.605-4.053l-4.663-14.355c-.384-1.652.67-3.556 2.579-4.644l10.576-4.932c2.052-.759 4.188-.342 5.207 1.014zm-16.236 4.129l-4.538-2.254m7.71.775l-2.862-3.653m6.677 1.873l-.641-4.688m3.813 3.21l1.508-5.073m1.04-.253a62.738 62.738 0 00-17.79 8.296l-3.604-1.079a62.782 62.782 0 0122.884-10.67z"
      fill="#fff" stroke="#000" stroke-linejoin="round" stroke-miterlimit="10" />
    <path
      d="M155.825 291.571l13.898 5.888c2.089.802 3.509 2.742 3.637 4.94a60.138 60.138 0 01-9.515 16.481c-1.973.997-4.358.729-6.097-.68l-12.053-9.083c-1.263-1.133-1.491-3.297-.552-5.284l5.835-10.106c1.246-1.798 3.234-2.683 4.847-2.156zm-10.932 12.695l-5.01.757m6.76-3.788l-4.44-1.35m6.545-2.296l-3.215-3.472m4.965.441l-1.675-5.02m.707-.804a62.738 62.738 0 00-9.815 17l-3.57 1.184a62.782 62.782 0 0112.625-21.868z"
      fill="#fff" stroke="#000" stroke-linejoin="round" stroke-miterlimit="10" />
    <path
      d="M145.484 313.162l14.873-3.139c2.18-.542 4.476.221 5.851 1.938a59.324 59.324 0 011.647 18.828c-1.056 1.93-3.184 3.079-5.426 2.924l-15.192-.508c-1.694-.203-3.13-1.824-3.51-3.98l-1.01-11.535c.001-2.179 1.134-4.034 2.767-4.528zm-1.713 16.562l-3.691 3.475m3.387-6.942l-4.442 1.433m4.079-5.587l-4.654-.988m4.35-2.489l-4.268-3.12m.118-1.054a61.852 61.852 0 001.699 19.416l-2.257 2.998a61.547 61.547 0 01-2.185-24.975zM202.553 289.613l-4.654 14.359c-.617 2.15-2.426 3.735-4.605 4.054a60.138 60.138 0 01-17.247-8.043c-1.165-1.878-1.105-4.278.146-6.133l7.998-12.799c1.019-1.356 3.155-1.773 5.216-1.01l10.576 4.932c1.9 1.084 2.954 2.988 2.57 4.64zm-13.6-9.784l-1.19-4.924m4.363 6.404l.958-4.54m2.857 6.319l3.18-3.505m-.008 4.984l4.855-2.106m.863.634a62.738 62.738 0 00-17.79-8.296l-1.491-3.453a62.782 62.782 0 0122.884 10.671zM213.443 333.882l-15.192.508c-2.242.155-4.37-.994-5.425-2.924a59.324 59.324 0 011.647-18.828c1.375-1.717 3.67-2.48 5.85-1.937l14.874 3.138c1.633.494 2.767 2.34 2.766 4.528l-1.01 11.536c-.378 2.145-1.815 3.776-3.51 3.98zm4.563-16.013l4.239-2.781m-4.542 6.248l4.623-.64m-4.986 4.794l4.411 1.781m-4.715 1.696l3.661 3.813m-.3 1.018a61.852 61.852 0 001.699-19.416l2.743-2.56a61.547 61.547 0 01-2.184 24.974z"
      fill="#fff" stroke="#000" stroke-linejoin="round" stroke-miterlimit="10" />
    <path
      d="M214.635 309.589l-12.048 9.092c-1.739 1.408-4.129 1.668-6.097.68a60.138 60.138 0 01-9.515-16.481c.123-2.207 1.548-4.139 3.637-4.94l13.893-5.897c1.613-.527 3.601.357 4.852 2.164l5.835 10.106c.934 1.978.706 4.143-.557 5.276zm-5.528-15.815l1.85-4.717m-.1 7.748l3.39-3.17m-1.285 6.816l4.615-1.048m-2.865 4.079l5.185 1.06m.343 1.014a62.738 62.738 0 00-9.815-17l.76-3.684a62.782 62.782 0 0112.625 21.868z"
      fill="#fff" stroke="#000" stroke-linejoin="round" stroke-miterlimit="10" />
    <ellipse cx="180.23" cy="317.06" rx="31.429" ry="31.655" fill="#fff" stroke="#000" /><text x="179.73" y="323.56"
      font-family="Helvetica" font-weight="bold" text-anchor="middle" font-size="22">5</text>
  </g>
  <g data-table="6" pointer-events="none">
    <path
      d="M263.825 291.571l13.898 5.888c2.08.797 3.509 2.742 3.637 4.94a60.138 60.138 0 01-9.515 16.481c-1.973.997-4.367.724-6.097-.68l-12.053-9.083c-1.263-1.133-1.491-3.297-.561-5.289l5.835-10.106c1.255-1.793 3.243-2.678 4.856-2.15zm-10.941 12.69l-5 .762m6.75-3.793l-4.44-1.35m6.545-2.296l-3.214-3.472m4.964.441l-1.666-5.015m.707-.804a62.738 62.738 0 00-9.815 17l-3.57 1.184a62.782 62.782 0 0112.625-21.868z"
      fill="#fff" stroke="#000" stroke-linejoin="round" stroke-miterlimit="10" />
    <path
      d="M253.484 313.162l14.873-3.139c2.18-.542 4.476.221 5.851 1.938a59.324 59.324 0 011.647 18.828c-1.056 1.93-3.184 3.079-5.426 2.924l-15.192-.508c-1.694-.203-3.13-1.824-3.51-3.98l-1.01-11.535c.001-2.179 1.134-4.034 2.767-4.528zm-1.713 16.562l-3.691 3.475m3.387-6.942l-4.442 1.433m4.079-5.587l-4.654-.988m4.35-2.489l-4.268-3.12m.118-1.054a61.265 61.265 0 001.699 19.416l-2.267 2.999a61.547 61.547 0 01-2.185-24.975zM310.553 289.613l-4.654 14.359c-.613 2.142-2.426 3.735-4.605 4.054a60.138 60.138 0 01-17.247-8.043c-1.165-1.878-1.101-4.287.146-6.133l7.998-12.799c1.019-1.356 3.155-1.773 5.22-1.02l10.577 4.933c1.895 1.093 2.95 2.997 2.565 4.65zm-13.595-9.793l-1.195-4.915m4.367 6.395l.959-4.54m2.857 6.319l3.179-3.505m-.007 4.984l4.85-2.097m.863.634a62.738 62.738 0 00-17.79-8.296l-1.491-3.453a62.782 62.782 0 0122.884 10.671zM321.443 333.882l-15.192.508c-2.242.155-4.37-.994-5.425-2.924a59.324 59.324 0 011.647-18.828c1.375-1.717 3.67-2.48 5.85-1.937l14.874 3.138c1.633.494 2.767 2.34 2.766 4.528l-1.01 11.536c-.378 2.145-1.815 3.776-3.51 3.98zm4.563-16.013l4.239-2.781m-4.542 6.248l4.623-.64m-4.986 4.794l4.411 1.781m-4.715 1.696l3.661 3.813m-.3 1.018a61.265 61.265 0 001.699-19.416l2.753-2.56a61.547 61.547 0 01-2.185 24.975z"
      fill="#fff" stroke="#000" stroke-linejoin="round" stroke-miterlimit="10" />
    <path
      d="M322.635 309.589l-12.048 9.092c-1.73 1.403-4.129 1.668-6.097.68a60.138 60.138 0 01-9.515-16.481c.123-2.207 1.557-4.144 3.637-4.94l13.893-5.897c1.613-.527 3.601.357 4.861 2.159l5.835 10.106c.925 1.983.697 4.148-.566 5.28zm-5.519-15.82l1.84-4.712m-.09 7.743l3.39-3.17m-1.285 6.816l4.614-1.048m-2.864 4.079l5.176 1.065m.343 1.014a62.738 62.738 0 00-9.815-17l.76-3.684a62.782 62.782 0 0112.625 21.868zM285.007 280.772l8.007 12.795c1.247 1.846 1.302 4.259.146 6.133a60.138 60.138 0 01-17.247 8.042c-2.188-.314-3.992-1.912-4.605-4.053l-4.663-14.355c-.384-1.652.67-3.556 2.575-4.654l10.576-4.931c2.056-.75 4.192-.333 5.211 1.023zm-16.24 4.12l-4.534-2.245m7.705.766l-2.861-3.653m6.677 1.873l-.641-4.688m3.813 3.21l1.512-5.064m1.04-.253a62.738 62.738 0 00-17.79 8.296l-3.604-1.079a62.782 62.782 0 0122.884-10.67z"
      fill="#fff" stroke="#000" stroke-linejoin="round" stroke-miterlimit="10" />
    <ellipse cx="288.23" cy="317.06" rx="31.429" ry="31.655" fill="#fff" stroke="#000" /><text x="287.73" y="323.56"
      font-family="Helvetica" font-weight="bold" text-anchor="middle" font-size="22">6</text>
  </g>
  <g data-table="7" pointer-events="none">
    <path
      d="M828.28 445.59l1.28 10.25c.24 1.5-.43 3.01-1.7 3.84-4.36.69-8.79.69-13.15 0a3.868 3.868 0 01-1.7-3.84l1.27-10.25c.25-1.14 1.46-2.01 2.97-2.14h8.06c1.52.13 2.73 1 2.97 2.14z"
      fill="#fff" stroke="#000" stroke-miterlimit="10" />
    <path
      d="M827.95 443.24c.36.13.55.56.43.95-.12.4-.5.61-.85.48a26.608 26.608 0 00-12.73 0c-.26-.07-.47-.29-.56-.58-.08-.29-.03-.61.14-.85 4.46-1.18 9.11-1.18 13.57 0M814.61 500.48c-.36-.13-.55-.55-.43-.95.12-.39.5-.61.85-.48a26.36 26.36 0 0012.73 0c.26.08.47.3.56.59.08.29.03.61-.14.84a26.452 26.452 0 01-13.57 0M853.83 445.59l1.27 10.25a3.85 3.85 0 01-1.7 3.84c-4.36.69-8.79.69-13.15 0a3.868 3.868 0 01-1.7-3.84l1.28-10.25c.24-1.14 1.45-2.01 2.97-2.14h8.06c1.51.13 2.72 1 2.97 2.14z"
      fill="#fff" stroke="#000" stroke-miterlimit="10" />
    <path
      d="M853.5 443.24c.35.13.54.56.42.95-.12.4-.5.61-.85.48a26.608 26.608 0 00-12.73 0c-.26-.07-.47-.29-.56-.58-.08-.29-.03-.61.14-.85a26.49 26.49 0 0113.58 0M839.83 498.14l-1.27-10.25c-.24-1.51.42-3.02 1.7-3.85 4.36-.68 8.79-.68 13.15 0 1.27.83 1.94 2.34 1.7 3.85l-1.28 10.25c-.24 1.13-1.45 2.01-2.97 2.13h-8.06c-1.51-.12-2.72-1-2.97-2.13z"
      fill="#fff" stroke="#000" stroke-miterlimit="10" />
    <path
      d="M840.16 500.48c-.35-.13-.54-.55-.42-.95.12-.39.5-.61.85-.48a26.36 26.36 0 0012.73 0c.26.08.47.3.56.59.08.29.03.61-.14.84a26.49 26.49 0 01-13.58 0M814.28 498.14L813 487.89c-.24-1.51.43-3.02 1.7-3.85 4.36-.68 8.79-.68 13.15 0 1.27.83 1.94 2.34 1.7 3.85l-1.27 10.25c-.25 1.13-1.46 2.01-2.97 2.13h-8.06c-1.52-.12-2.73-1-2.97-2.13z"
      fill="#fff" stroke="#000" stroke-miterlimit="10" />
    <path fill="#fff" stroke="#000" d="M800 450.58h68.11v42.57H800z" /><text x="833.56" y="481.36"
      font-family="Helvetica" font-weight="bold" text-anchor="middle" font-size="22">7</text>
  </g>
  <g data-table="8" pointer-events="none">
    <path
      d="M828.28 377.53l1.27 10.25c.25 1.5-.42 3.01-1.69 3.84-4.36.69-8.8.69-13.15 0a3.85 3.85 0 01-1.7-3.84l1.27-10.25c.25-1.14 1.46-2.01 2.97-2.14h8.06c1.51.13 2.73 1 2.97 2.14zM814.28 430.08l-1.27-10.25c-.25-1.51.42-3.02 1.69-3.85 4.36-.68 8.8-.68 13.15 0 1.28.83 1.94 2.34 1.7 3.85l-1.27 10.25c-.25 1.13-1.46 2.01-2.97 2.13h-8.06c-1.51-.12-2.73-1-2.97-2.13z"
      fill="#fff" stroke="#000" stroke-miterlimit="10" />
    <path
      d="M814.61 432.42c-.35-.13-.54-.55-.43-.95.12-.39.5-.61.85-.48a26.36 26.36 0 0012.73 0c.26.08.47.3.56.59.09.29.03.61-.14.84a26.452 26.452 0 01-13.57 0M853.82 377.53l1.28 10.25c.24 1.5-.43 3.01-1.7 3.84-4.36.69-8.79.69-13.15 0a3.868 3.868 0 01-1.7-3.84l1.28-10.25c.24-1.14 1.45-2.01 2.96-2.14h8.06c1.52.13 2.73 1 2.97 2.14z"
      fill="#fff" stroke="#000" stroke-miterlimit="10" />
    <path
      d="M853.49 375.18c.36.13.55.56.43.95-.12.4-.5.61-.85.48a26.608 26.608 0 00-12.73 0c-.26-.07-.47-.29-.56-.58-.08-.29-.03-.61.14-.85 4.46-1.18 9.11-1.18 13.57 0M840.15 432.42c-.36-.13-.55-.55-.43-.95.12-.39.5-.61.85-.48a26.36 26.36 0 0012.73 0c.26.08.47.3.56.59.08.29.03.61-.14.84a26.452 26.452 0 01-13.57 0"
      fill="#fff" stroke="#000" stroke-miterlimit="10" />
    <path
      d="M839.82 430.08l-1.28-10.25c-.24-1.51.43-3.02 1.7-3.85 4.36-.68 8.79-.68 13.15 0 1.27.83 1.94 2.34 1.7 3.85l-1.28 10.25c-.24 1.13-1.45 2.01-2.96 2.13h-8.06c-1.52-.12-2.73-1-2.97-2.13zM827.95 375.18c.35.13.54.56.43.95-.12.4-.5.61-.85.48-4.2-1.03-8.54-1.03-12.73 0-.26-.07-.47-.29-.56-.58a.984.984 0 01.14-.85c4.46-1.18 9.11-1.18 13.57 0"
      fill="#fff" stroke="#000" stroke-miterlimit="10" />
    <path fill="#fff" stroke="#000" d="M800 382.52h68.11v42.57H800z" /><text x="833.55" y="413.3"
      font-family="Helvetica" font-weight="bold" text-anchor="middle" font-size="22">8</text>
  </g>
  <g data-table="9" pointer-events="none">
    <path
      d="M828.28 306.07l1.28 10.25a3.86 3.86 0 01-1.7 3.84c-4.36.69-8.8.69-13.15 0a3.843 3.843 0 01-1.7-3.84l1.27-10.25c.25-1.14 1.46-2.01 2.97-2.14h8.06c1.52.13 2.73 1 2.97 2.14zM814.61 360.96c-.35-.13-.55-.56-.43-.95.12-.4.5-.61.85-.48 4.19 1.03 8.54 1.03 12.73 0 .26.08.47.3.56.59.09.29.03.6-.14.84a26.452 26.452 0 01-13.57 0"
      fill="#fff" stroke="#000" stroke-miterlimit="10" />
    <path
      d="M814.28 358.62L813 348.37c-.24-1.51.43-3.02 1.7-3.85 4.36-.69 8.8-.69 13.15 0 1.28.83 1.94 2.34 1.7 3.85l-1.27 10.25c-.25 1.13-1.46 2-2.97 2.13h-8.06c-1.52-.13-2.73-1-2.97-2.13zM853.49 303.72c.36.13.55.56.43.96-.12.39-.5.61-.85.47a26.608 26.608 0 00-12.73 0c-.26-.07-.47-.29-.56-.58-.08-.29-.03-.61.14-.85a26.67 26.67 0 0113.57 0"
      fill="#fff" stroke="#000" stroke-miterlimit="10" />
    <path
      d="M853.82 306.07l1.28 10.25a3.86 3.86 0 01-1.7 3.84c-4.36.69-8.79.69-13.15 0a3.86 3.86 0 01-1.7-3.84l1.28-10.25c.24-1.14 1.45-2.01 2.97-2.14h8.06c1.51.13 2.72 1 2.96 2.14zM840.17 360.96c-.36-.13-.55-.56-.43-.95.12-.4.5-.61.85-.48 4.19 1.03 8.53 1.03 12.73 0 .26.08.47.3.56.59.08.29.03.6-.14.84a26.452 26.452 0 01-13.57 0"
      fill="#fff" stroke="#000" stroke-miterlimit="10" />
    <path
      d="M839.84 358.62l-1.28-10.25c-.24-1.51.43-3.02 1.7-3.85 4.36-.69 8.79-.69 13.15 0 1.27.83 1.94 2.34 1.7 3.85l-1.28 10.25c-.24 1.13-1.45 2-2.97 2.13h-8.06c-1.51-.13-2.72-1-2.96-2.13zM827.95 303.72c.35.13.55.56.43.96-.12.39-.5.61-.85.47a26.608 26.608 0 00-12.73 0c-.26-.07-.47-.29-.56-.58a.984.984 0 01.14-.85 26.67 26.67 0 0113.57 0"
      fill="#fff" stroke="#000" stroke-miterlimit="10" />
    <path fill="#fff" stroke="#000" d="M800 311.06h68.11v42.57H800z" /><text x="833.55" y="341.84"
      font-family="Helvetica" font-weight="bold" text-anchor="middle" font-size="22">9</text>
  </g>
  <g data-table="10" pointer-events="none">
    <path
      d="M916.28 445.59l1.28 10.25c.24 1.51-.43 3.02-1.7 3.85-4.36.68-8.79.68-13.15 0a3.876 3.876 0 01-1.7-3.85l1.28-10.25c.24-1.13 1.45-2 2.96-2.13h8.07c1.51.13 2.72 1 2.96 2.13zM902.61 500.5c-.36-.13-.55-.56-.43-.95.12-.4.5-.61.85-.48 4.19 1.03 8.53 1.03 12.73 0 .26.07.47.29.56.58.08.29.03.61-.14.85a26.452 26.452 0 01-13.57 0M941.83 445.59l1.27 10.25c.24 1.51-.42 3.02-1.7 3.85-4.35.68-8.79.68-13.15 0a3.876 3.876 0 01-1.7-3.85l1.28-10.25c.24-1.13 1.46-2 2.97-2.13h8.06c1.51.13 2.72 1 2.97 2.13z"
      fill="#fff" stroke="#000" stroke-miterlimit="10" />
    <path
      d="M941.5 443.25c.35.13.54.56.42.95-.12.4-.5.61-.85.48a26.36 26.36 0 00-12.73 0 .873.873 0 01-.56-.59.99.99 0 01.14-.84 26.49 26.49 0 0113.58 0M927.83 498.15l-1.27-10.25a3.85 3.85 0 011.7-3.84c4.35-.69 8.79-.69 13.15 0 1.27.83 1.94 2.34 1.7 3.84l-1.28 10.25c-.24 1.14-1.46 2.01-2.97 2.14h-8.06c-1.51-.13-2.72-1-2.97-2.14z"
      fill="#fff" stroke="#000" stroke-miterlimit="10" />
    <path
      d="M928.16 500.5c-.35-.13-.54-.56-.42-.95.12-.4.5-.61.85-.48 4.19 1.03 8.53 1.03 12.73 0 .26.07.47.29.56.58.08.29.03.61-.14.85a26.49 26.49 0 01-13.58 0M902.28 498.15L901 487.9c-.24-1.5.43-3.01 1.7-3.84 4.36-.69 8.79-.69 13.15 0 1.27.83 1.94 2.34 1.7 3.84l-1.28 10.25c-.24 1.14-1.45 2.01-2.96 2.14h-8.07c-1.51-.13-2.72-1-2.96-2.14zM915.95 443.25c.36.13.55.56.43.95-.12.4-.5.61-.85.48a26.36 26.36 0 00-12.73 0 .873.873 0 01-.56-.59.99.99 0 01.14-.84c4.46-1.18 9.11-1.18 13.57 0"
      fill="#fff" stroke="#000" stroke-miterlimit="10" />
    <path fill="#fff" stroke="#000" d="M888 450.58h68.11v42.57H888z" /><text x="921.56" y="481.37"
      font-family="Helvetica" font-weight="bold" text-anchor="middle" font-size="22">10</text>
  </g>
  <g data-table="11" pointer-events="none">
    <path
      d="M916.28 377.73l1.28 10.25c.24 1.5-.43 3.01-1.7 3.84-4.36.69-8.8.69-13.15 0a3.85 3.85 0 01-1.7-3.84l1.27-10.25c.25-1.14 1.46-2.01 2.97-2.14h8.06c1.52.13 2.73 1 2.97 2.14zM902.28 430.28L901 420.03c-.24-1.51.43-3.02 1.7-3.85 4.36-.68 8.8-.68 13.15 0 1.28.83 1.94 2.34 1.7 3.85l-1.27 10.25c-.25 1.13-1.46 2.01-2.97 2.13h-8.06c-1.52-.12-2.73-1-2.97-2.13z"
      fill="#fff" stroke="#000" stroke-miterlimit="10" />
    <path
      d="M902.61 432.62c-.35-.13-.55-.55-.43-.95.12-.39.5-.61.85-.48a26.36 26.36 0 0012.73 0c.26.08.47.3.56.59.09.29.03.61-.14.84a26.452 26.452 0 01-13.57 0M941.82 377.73l1.28 10.25c.24 1.5-.43 3.01-1.7 3.84-4.36.69-8.79.69-13.15 0a3.868 3.868 0 01-1.7-3.84l1.28-10.25c.24-1.14 1.45-2.01 2.97-2.14h8.06c1.51.13 2.72 1 2.96 2.14z"
      fill="#fff" stroke="#000" stroke-miterlimit="10" />
    <path
      d="M941.49 375.38c.36.13.55.56.43.96-.12.39-.5.6-.85.47a26.608 26.608 0 00-12.73 0c-.26-.07-.47-.29-.56-.58-.08-.29-.03-.61.14-.85 4.46-1.18 9.11-1.18 13.57 0M927.84 430.28l-1.28-10.25c-.24-1.51.43-3.02 1.7-3.85 4.36-.68 8.79-.68 13.15 0 1.27.83 1.94 2.34 1.7 3.85l-1.28 10.25c-.24 1.13-1.45 2.01-2.97 2.13h-8.06c-1.51-.12-2.72-1-2.96-2.13z"
      fill="#fff" stroke="#000" stroke-miterlimit="10" />
    <path
      d="M928.17 432.62c-.36-.13-.55-.55-.43-.95.12-.39.5-.61.85-.48a26.36 26.36 0 0012.73 0c.26.08.47.3.56.59.08.29.03.61-.14.84a26.452 26.452 0 01-13.57 0M915.95 375.38c.35.13.55.56.43.96-.12.39-.5.6-.85.47a26.608 26.608 0 00-12.73 0c-.26-.07-.47-.29-.56-.58a.984.984 0 01.14-.85c4.46-1.18 9.11-1.18 13.57 0"
      fill="#fff" stroke="#000" stroke-miterlimit="10" />
    <path fill="#fff" stroke="#000" d="M888 382.72h68.11v42.57H888z" /><text x="921.55" y="413.5"
      font-family="Helvetica" font-weight="bold" text-anchor="middle" font-size="22">11</text>
  </g>
  <g data-table="12" pointer-events="none">
    <path
      d="M902.28 356.7l-1.27-10.25c-.24-1.51.42-3.02 1.69-3.85 4.36-.68 8.8-.68 13.16 0 1.27.83 1.94 2.34 1.69 3.85l-1.27 10.25c-.24 1.13-1.46 2.01-2.97 2.13h-8.06c-1.51-.12-2.73-1-2.97-2.13zM916.28 304.15l1.27 10.25c.24 1.5-.42 3.01-1.69 3.84-4.36.69-8.8.69-13.16 0a3.844 3.844 0 01-1.69-3.84l1.27-10.25c.24-1.14 1.46-2.01 2.97-2.14h8.06c1.51.13 2.73 1 2.97 2.14zM941.82 304.15l1.27 10.25c.25 1.5-.42 3.01-1.69 3.84-4.36.69-8.8.69-13.15 0a3.85 3.85 0 01-1.7-3.84l1.27-10.25c.25-1.14 1.46-2.01 2.97-2.14h8.06c1.51.13 2.73 1 2.97 2.14z"
      fill="#fff" stroke="#000" stroke-miterlimit="10" />
    <path
      d="M902.61 359.04c-.35-.13-.54-.55-.42-.95.11-.39.49-.61.85-.48a26.32 26.32 0 0012.72 0c.27.08.48.3.56.59.09.29.04.61-.13.84a26.49 26.49 0 01-13.58 0M941.49 301.8c.35.13.54.56.43.95-.12.4-.5.61-.85.48-4.2-1.03-8.54-1.03-12.73 0a.82.82 0 01-.56-.58.952.952 0 01.14-.85c4.46-1.18 9.11-1.18 13.57 0M928.15 359.04c-.35-.13-.54-.55-.43-.95.12-.39.5-.61.85-.48a26.36 26.36 0 0012.73 0c.26.08.48.3.56.59.09.29.04.61-.14.84a26.452 26.452 0 01-13.57 0"
      fill="#fff" stroke="#000" stroke-miterlimit="10" />
    <path
      d="M927.82 356.7l-1.27-10.25c-.25-1.51.42-3.02 1.69-3.85 4.36-.68 8.8-.68 13.15 0 1.28.83 1.94 2.34 1.7 3.85l-1.27 10.25c-.25 1.13-1.46 2.01-2.97 2.13h-8.06c-1.51-.12-2.73-1-2.97-2.13zM915.95 301.8c.35.13.54.56.42.95-.11.4-.49.61-.85.48a26.567 26.567 0 00-12.72 0 .802.802 0 01-.56-.58.981.981 0 01.13-.85 26.49 26.49 0 0113.58 0"
      fill="#fff" stroke="#000" stroke-miterlimit="10" />
    <path fill="#fff" stroke="#000" d="M887.99 309.14h68.11v42.57h-68.11z" /><text x="921.55" y="339.92"
      font-family="Helvetica" font-weight="bold" text-anchor="middle" font-size="22">12</text>
  </g>
  <g data-table="13" pointer-events="none">
    <path
      d="M1004.11 445.59l1.27 10.25c.25 1.51-.42 3.01-1.69 3.84-4.36.69-8.8.69-13.15 0a3.843 3.843 0 01-1.7-3.84l1.27-10.25c.25-1.14 1.46-2.01 2.97-2.14h8.06c1.51.13 2.73 1 2.97 2.14zM990.11 498.14l-1.27-10.25c-.25-1.51.42-3.02 1.69-3.85 4.36-.69 8.8-.69 13.15 0 1.28.83 1.94 2.34 1.7 3.85l-1.27 10.25c-.25 1.13-1.46 2-2.97 2.13h-8.06c-1.51-.13-2.73-1-2.97-2.13z"
      fill="#fff" stroke="#000" stroke-miterlimit="10" />
    <path
      d="M990.44 500.48c-.35-.13-.54-.56-.43-.95.12-.4.5-.61.85-.48 4.2 1.03 8.54 1.03 12.73 0 .26.08.47.3.56.59.09.29.03.6-.14.84a26.452 26.452 0 01-13.57 0M1029.32 443.24c.36.13.55.56.43.96-.12.39-.5.61-.85.47a26.608 26.608 0 00-12.73 0c-.26-.07-.47-.29-.56-.58-.08-.29-.03-.61.14-.85a26.67 26.67 0 0113.57 0"
      fill="#fff" stroke="#000" stroke-miterlimit="10" />
    <path
      d="M1029.65 445.59l1.28 10.25a3.86 3.86 0 01-1.7 3.84c-4.36.69-8.79.69-13.15 0a3.86 3.86 0 01-1.7-3.84l1.28-10.25c.24-1.14 1.45-2.01 2.96-2.14h8.06c1.52.13 2.73 1 2.97 2.14zM1015.65 498.14l-1.28-10.25c-.24-1.51.43-3.02 1.7-3.85 4.36-.69 8.79-.69 13.15 0 1.27.83 1.94 2.34 1.7 3.85l-1.28 10.25c-.24 1.13-1.45 2-2.96 2.13h-8.06c-1.52-.13-2.73-1-2.97-2.13z"
      fill="#fff" stroke="#000" stroke-miterlimit="10" />
    <path
      d="M1015.98 500.48c-.36-.13-.55-.56-.43-.95.12-.4.5-.61.85-.48 4.19 1.03 8.54 1.03 12.73 0 .26.08.47.3.56.59.08.29.03.6-.14.84a26.452 26.452 0 01-13.57 0M1003.78 443.24c.35.13.54.56.43.96-.12.39-.5.61-.85.47-4.2-1.03-8.54-1.03-12.73 0-.26-.07-.47-.29-.56-.58a.984.984 0 01.14-.85 26.67 26.67 0 0113.57 0"
      fill="#fff" stroke="#000" stroke-miterlimit="10" />
    <path fill="#fff" stroke="#000" d="M975.83 450.58h68.11v42.57h-68.11z" /><text x="1009.38" y="481.36"
      font-family="Helvetica" font-weight="bold" text-anchor="middle" font-size="22">13</text>
  </g>
  <g data-table="14" pointer-events="none">
    <path
      d="M1004.12 377.52l1.27 10.25c.24 1.51-.42 3.02-1.7 3.85-4.35.69-8.79.69-13.15 0a3.851 3.851 0 01-1.69-3.85l1.27-10.25c.24-1.13 1.46-2 2.97-2.13h8.06c1.51.13 2.72 1 2.97 2.13z"
      fill="#fff" stroke="#000" stroke-miterlimit="10" />
    <path
      d="M1003.79 375.18c.35.13.54.56.42.95-.11.4-.49.61-.85.48a26.567 26.567 0 00-12.72 0 .834.834 0 01-.56-.59.96.96 0 01.13-.84 26.49 26.49 0 0113.58 0M990.12 430.08l-1.27-10.25c-.24-1.51.42-3.01 1.7-3.84 4.35-.69 8.79-.69 13.15 0 1.27.83 1.94 2.33 1.69 3.84l-1.27 10.25c-.24 1.14-1.46 2.01-2.97 2.14h-8.06c-1.51-.13-2.72-1-2.97-2.14z"
      fill="#fff" stroke="#000" stroke-miterlimit="10" />
    <path
      d="M990.45 432.43c-.35-.13-.54-.56-.42-.96.11-.39.49-.61.85-.47 4.19 1.03 8.53 1.03 12.72 0 .27.07.48.29.56.58.09.29.04.61-.13.85a26.709 26.709 0 01-13.58 0M1029.66 377.52l1.27 10.25c.25 1.51-.42 3.02-1.69 3.85-4.36.69-8.8.69-13.15 0a3.858 3.858 0 01-1.7-3.85l1.27-10.25c.25-1.13 1.46-2 2.97-2.13h8.06c1.51.13 2.73 1 2.97 2.13z"
      fill="#fff" stroke="#000" stroke-miterlimit="10" />
    <path
      d="M1029.33 375.18c.35.13.54.56.43.95-.12.4-.5.61-.85.48-4.2-1.03-8.54-1.03-12.73 0a.853.853 0 01-.56-.59.96.96 0 01.13-.84 26.49 26.49 0 0113.58 0M1015.66 430.08l-1.27-10.25c-.25-1.51.42-3.01 1.69-3.84 4.36-.69 8.8-.69 13.15 0 1.28.83 1.94 2.33 1.7 3.84l-1.27 10.25c-.25 1.14-1.46 2.01-2.97 2.14h-8.06c-1.51-.13-2.73-1-2.97-2.14z"
      fill="#fff" stroke="#000" stroke-miterlimit="10" />
    <path
      d="M1015.99 432.43c-.35-.13-.54-.56-.43-.96.12-.39.5-.61.85-.47 4.2 1.03 8.54 1.03 12.73 0 .26.07.48.29.56.58.09.29.04.61-.13.85a26.709 26.709 0 01-13.58 0"
      fill="#fff" stroke="#000" stroke-miterlimit="10" />
    <path fill="#fff" stroke="#000" d="M975.83 382.51h68.11v42.57h-68.11z" /><text x="1009.39" y="413.3"
      font-family="Helvetica" font-weight="bold" text-anchor="middle" font-size="22">14</text>
  </g>
  <g data-table="15" pointer-events="none">
    <path
      d="M1036.801 311.652l-12.799 7.998c-1.855 1.251-4.254 1.311-6.129.155a60.2 60.2 0 01-8.046-17.256c.319-2.18 1.903-3.988 4.053-4.605l14.359-4.654c1.652-.384 3.547.674 4.64 2.57l4.932 10.576c.754 2.065.347 4.197-1.01 5.216zm-4.133-16.246l2.254-4.537m-.77 7.719l3.652-2.862m-1.877 6.668l4.688-.641m-3.205 3.822l5.072 1.508m.254 1.04a62.802 62.802 0 00-8.3-17.8l1.082-3.594a63.094 63.094 0 0110.667 22.875zM1004.328 280.204l3.139 14.873c.532 2.182-.221 4.476-1.938 5.851a59.324 59.324 0 01-18.828 1.647c-1.93-1.056-3.079-3.184-2.924-5.426l.508-15.192c.203-1.694 1.824-3.13 3.97-3.509l11.545-1.01c2.179 0 4.034 1.133 4.528 2.766zm-16.572-1.712l-3.466-3.702m6.943 3.397l-1.443-4.44m5.597 4.077l.988-4.654m2.479 4.35l3.119-4.277m1.065.127a61.265 61.265 0 00-19.416 1.699l-2.999-2.267a61.498 61.498 0 0124.965-2.184z"
      fill="#fff" stroke="#000" stroke-linejoin="round" stroke-miterlimit="10" />
    <path
      d="M1027.951 337.176l-14.354-4.663c-2.15-.617-3.739-2.417-4.058-4.596a60.2 60.2 0 018.047-17.256 5.638 5.638 0 016.129.155l12.799 7.998c1.356 1.02 1.763 3.151 1.01 5.216l-4.928 10.568c-1.097 1.904-2.992 2.963-4.645 2.578zm9.789-13.608l4.92-1.181m-6.404 4.362l4.54.959m-6.315 2.848l3.505 3.179m-4.988.002l2.105 4.854m-.634.863a62.738 62.738 0 008.296-17.79l3.454-1.49a63.094 63.094 0 01-10.667 22.874zM983.608 348.093l-.508-15.192c-.155-2.242.994-4.37 2.924-5.425 6.324-.461 12.68.095 18.828 1.647 1.717 1.375 2.48 3.67 1.937 5.85l-3.138 14.874c-.494 1.633-2.34 2.767-4.528 2.766l-11.536-1.01c-2.145-.378-3.776-1.815-3.98-3.51zm16.013 4.563l2.781 4.239m-6.248-4.542l.64 4.623M992 351.99l-1.781 4.411m-1.696-4.715l-3.813 3.661m-1.018-.3a61.265 61.265 0 0019.416 1.699l2.56 2.753a61.547 61.547 0 01-24.975-2.185z"
      fill="#fff" stroke="#000" stroke-linejoin="round" stroke-miterlimit="10" />
    <path
      d="M1007.948 349.319l-9.084-12.053c-1.408-1.739-1.668-4.13-.68-6.097a60.138 60.138 0 0116.481-9.515c2.207.123 4.139 1.548 4.94 3.637l5.897 13.893c.527 1.613-.357 3.601-2.164 4.852l-10.106 5.835c-1.987.94-4.143.706-5.284-.552zm15.823-5.533l4.717 1.85m-7.748-.1l3.17 3.39m-6.816-1.285l1.048 4.614m-4.088-2.859l-1.05 5.18m-1.015.343a62.738 62.738 0 0017-9.815l3.684.76a63.144 63.144 0 01-21.868 12.625zM1026.067 290.56l-5.888 13.898c-.801 2.089-2.742 3.509-4.94 3.637a60.2 60.2 0 01-16.49-9.52c-.988-1.968-.719-4.353.69-6.092l9.083-12.053c1.133-1.263 3.297-1.491 5.284-.552l10.106 5.835c1.798 1.246 2.682 3.234 2.155 4.847zm-12.703-10.937l-.748-5.005m3.788 6.76l1.35-4.44m2.296 6.545l3.472-3.215m-.441 4.965l5.02-1.675m.804.707a62.738 62.738 0 00-17-9.815l-1.184-3.57a62.782 62.782 0 0121.867 12.625z"
      fill="#fff" stroke="#000" stroke-linejoin="round" stroke-miterlimit="10" />
    <ellipse cx="1000.43" cy="314.87" rx="31.429" ry="31.655" fill="#fff" stroke="#000" /><text x="999.93" y="324.37"
      font-family="Helvetica" font-weight="bold" text-anchor="middle" font-size="22">15</text>
  </g>
  <g data-table="101" pointer-events="none">
    <path
      d="M152.61 604.82l-1.83-15.1c-.35-2.22.61-4.44 2.44-5.66a59.324 59.324 0 0118.9 0c1.83 1.22 2.78 3.44 2.43 5.66l-1.83 15.1c-.35 1.66-2.09 2.95-4.26 3.14h-11.59c-2.17-.19-3.91-1.48-4.26-3.14zm16.35 3.14l3.13 3.99m-6.61-3.99l1.04 4.55m-5.22-4.55l-1.39 4.55m-2.09-4.55l-3.48 3.99m-1.05-.22a61.328 61.328 0 0019.5 0l2.78 2.52a61.498 61.498 0 01-25.06 0z"
      fill="#fff" stroke="#000" stroke-linejoin="round" stroke-miterlimit="10" />
    <path
      d="M134.08 565.18l14.98-1.84c2.2-.36 4.41.61 5.62 2.45a60.2 60.2 0 010 19.04 5.646 5.646 0 01-5.62 2.45l-14.98-1.84c-1.66-.35-2.94-2.11-3.13-4.3v-11.66c.19-2.19 1.47-3.95 3.13-4.3zm-3.13 16.47L127 584.8m3.95-6.66l-4.52 1.05m4.52-5.26l-4.52-1.4m4.52-2.1l-3.95-3.51m.21-1.05a62.738 62.738 0 000 19.63l-2.5 2.81a62.733 62.733 0 010-25.24zM191.92 586.12l-14.98 1.84c-2.2.35-4.41-.61-5.62-2.46a60.138 60.138 0 010-19.03c1.21-1.85 3.42-2.81 5.62-2.46l14.98 1.84c1.66.36 2.94 2.11 3.13 4.3v11.67c-.19 2.19-1.47 3.94-3.13 4.3zm3.13-16.47l3.95-3.16m-3.95 6.66l4.52-1.05m-4.52 5.26l4.52 1.4m-4.52 2.11l3.95 3.5m-.21 1.05a62.738 62.738 0 000-19.63l2.5-2.81a62.782 62.782 0 010 25.25z"
      fill="#fff" stroke="#000" stroke-linejoin="round" stroke-miterlimit="10" />
    <path
      d="M173.39 546.49l1.83 15.1c.35 2.21-.61 4.44-2.44 5.65a58.75 58.75 0 01-18.9 0c-1.83-1.21-2.78-3.44-2.43-5.65l1.83-15.1c.35-1.67 2.09-2.95 4.26-3.14h11.59c2.17.19 3.91 1.47 4.26 3.14zm-16.35-3.14l-3.13-3.99m6.61 3.99l-1.04-4.55m5.22 4.55l1.39-4.55m2.09 4.55l3.48-3.99m1.05.21a61.915 61.915 0 00-19.5 0l-2.78-2.51a61.498 61.498 0 0125.06 0z"
      fill="#fff" stroke="#000" stroke-linejoin="round" stroke-miterlimit="10" />
    <ellipse cx="163" cy="575.66" rx="22" ry="22.16" fill="#fff" stroke="#000" /><text x="162.5" y="583.16"
      font-family="Helvetica" font-weight="bold" text-anchor="middle" font-size="22">101</text>
  </g>
  <g data-table="102" pointer-events="none">
    <path
      d="M152.61 522.19l-1.83-15.09c-.35-2.22.61-4.44 2.44-5.66a58.75 58.75 0 0118.9 0c1.83 1.22 2.79 3.44 2.44 5.66l-1.83 15.09c-.35 1.67-2.1 2.95-4.27 3.14h-11.58c-2.18-.19-3.92-1.47-4.27-3.14zm16.35 3.14l3.13 3.99m-6.61-3.99l1.04 4.56m-5.22-4.56l-1.39 4.56m-2.09-4.56l-3.48 3.99m-1.04-.21a61.852 61.852 0 0019.49 0l2.79 2.51a61.547 61.547 0 01-25.07 0z"
      fill="#fff" stroke="#000" stroke-linejoin="round" stroke-miterlimit="10" />
    <path
      d="M134.07 482.55l14.99-1.84c2.2-.35 4.41.61 5.62 2.46 1 6.3 1 12.72 0 19.03-1.21 1.84-3.42 2.81-5.62 2.46l-14.99-1.84c-1.65-.36-2.93-2.11-3.12-4.3v-11.67c.19-2.19 1.47-3.95 3.12-4.3zm-3.12 16.47l-3.96 3.16m3.96-6.67l-4.52 1.05m4.52-5.25l-4.52-1.4m4.52-2.11l-3.96-3.5m.21-1.05a63.346 63.346 0 000 19.63l-2.49 2.8a62.733 62.733 0 010-25.24z"
      fill="#fff" stroke="#000" stroke-linejoin="round" stroke-miterlimit="10" />
    <path
      d="M173.39 463.86l1.83 15.09c.35 2.22-.61 4.44-2.44 5.66a59.324 59.324 0 01-18.9 0c-1.83-1.22-2.79-3.44-2.44-5.66l1.83-15.09c.35-1.67 2.1-2.96 4.27-3.15h11.58c2.18.19 3.92 1.48 4.27 3.15zm-16.35-3.15l-3.13-3.98m6.61 3.98l-1.04-4.55m5.22 4.55l1.39-4.55m2.09 4.55l3.48-3.98m1.04.21a61.852 61.852 0 00-19.49 0l-2.79-2.51a61.547 61.547 0 0125.07 0z"
      fill="#fff" stroke="#000" stroke-linejoin="round" stroke-miterlimit="10" />
    <path
      d="M191.92 503.49l-14.99 1.84c-2.2.36-4.41-.61-5.62-2.45-1-6.31-1-12.73 0-19.04 1.21-1.84 3.42-2.8 5.62-2.45l14.99 1.84c1.65.35 2.93 2.11 3.12 4.3v11.66c-.19 2.19-1.47 3.95-3.12 4.3zm3.12-16.47l3.96-3.15m-3.96 6.66l4.52-1.05m-4.52 5.26l4.52 1.4m-4.52 2.1l3.96 3.51m-.21 1.05a63.346 63.346 0 000-19.63l2.49-2.81a62.782 62.782 0 010 25.25z"
      fill="#fff" stroke="#000" stroke-linejoin="round" stroke-miterlimit="10" />
    <ellipse cx="163" cy="493.02" rx="22" ry="22.16" fill="#fff" stroke="#000" /><text x="162.5" y="500.52"
      font-family="Helvetica" font-weight="bold" text-anchor="middle" font-size="22">102</text>
  </g>
  <g data-table="103" pointer-events="none">
    <path
      d="M233.98 522.18l-1.83-15.09c-.35-2.22.61-4.44 2.44-5.66a59.324 59.324 0 0118.9 0c1.83 1.22 2.79 3.44 2.44 5.66l-1.83 15.09c-.35 1.67-2.09 2.96-4.27 3.15h-11.58c-2.17-.19-3.92-1.48-4.27-3.15zm16.35 3.15l3.14 3.99m-6.62-3.99l1.04 4.55m-5.22-4.55l-1.39 4.55m-2.09-4.55l-3.48 3.99m-1.04-.22a61.265 61.265 0 0019.49 0l2.79 2.52a61.547 61.547 0 01-25.07 0z"
      fill="#fff" stroke="#000" stroke-linejoin="round" stroke-miterlimit="10" />
    <path
      d="M215.47 482.55l14.98-1.84c2.21-.35 4.41.61 5.62 2.46 1.01 6.3 1.01 12.73 0 19.03-1.21 1.85-3.41 2.81-5.62 2.46l-14.98-1.84c-1.66-.36-2.94-2.11-3.12-4.3v-11.67c.18-2.19 1.46-3.94 3.12-4.3zm-3.12 16.47l-3.96 3.16m3.96-6.66l-4.52 1.05m4.52-5.26l-4.52-1.4m4.52-2.11l-3.96-3.5m.21-1.05a62.738 62.738 0 000 19.63l-2.5 2.8a62.733 62.733 0 010-25.24zM273.3 503.49l-14.98 1.84c-2.21.35-4.41-.61-5.62-2.45a60.2 60.2 0 010-19.04c1.21-1.84 3.41-2.81 5.62-2.46l14.98 1.85c1.66.35 2.94 2.11 3.12 4.3v11.66c-.18 2.19-1.46 3.95-3.12 4.3zm3.12-16.47l3.96-3.15m-3.96 6.66l4.52-1.05m-4.52 5.25l4.52 1.4m-4.52 2.11l3.96 3.51m-.21 1.05c1.03-6.5 1.03-13.14 0-19.63l2.5-2.81c1.71 8.3 1.71 16.94 0 25.24z"
      fill="#fff" stroke="#000" stroke-linejoin="round" stroke-miterlimit="10" />
    <path
      d="M254.78 463.86l1.83 15.1c.35 2.21-.61 4.44-2.44 5.66a59.324 59.324 0 01-18.9 0c-1.83-1.22-2.79-3.45-2.44-5.66l1.83-15.1c.35-1.67 2.09-2.95 4.27-3.14h11.58c2.17.19 3.92 1.47 4.27 3.14zm-16.35-3.14l-3.14-3.99m6.62 3.99l-1.04-4.55m5.22 4.55l1.39-4.55m2.09 4.55l3.48-3.99m1.04.22a61.265 61.265 0 00-19.49 0l-2.79-2.52a61.547 61.547 0 0125.07 0z"
      fill="#fff" stroke="#000" stroke-linejoin="round" stroke-miterlimit="10" />
    <ellipse cx="244.38" cy="493.03" rx="22" ry="22.16" fill="#fff" stroke="#000" /><text x="243.88" y="500.53"
      font-family="Helvetica" font-weight="bold" text-anchor="middle" font-size="22">103</text>
  </g>
  <g data-table="104" pointer-events="none">
    <path
      d="M173.19 380.9l1.83 15.09c.35 2.22-.6 4.44-2.43 5.66a59.324 59.324 0 01-18.9 0c-1.83-1.22-2.79-3.44-2.44-5.66l1.83-15.09c.35-1.67 2.09-2.96 4.26-3.15h11.59c2.17.19 3.91 1.48 4.26 3.15zm-16.35-3.15l-3.13-3.99m6.61 3.99l-1.04-4.55m5.22 4.55l1.39-4.55m2.09 4.55l3.48-3.99m1.05.22a61.327 61.327 0 00-19.5 0l-2.78-2.52a61.498 61.498 0 0125.06 0zM152.41 439.21l-1.83-15.09c-.35-2.22.6-4.44 2.43-5.66a59.324 59.324 0 0118.9 0c1.83 1.22 2.79 3.44 2.44 5.66l-1.83 15.09c-.35 1.67-2.09 2.96-4.26 3.15h-11.59c-2.17-.19-3.91-1.48-4.26-3.15zm16.35 3.15l3.13 3.98m-6.61-3.98l1.04 4.55m-5.22-4.55l-1.39 4.55m-2.09-4.55l-3.48 3.98m-1.05-.21a61.915 61.915 0 0019.5 0l2.78 2.51a61.498 61.498 0 01-25.06 0z"
      fill="#fff" stroke="#000" stroke-linejoin="round" stroke-miterlimit="10" />
    <path
      d="M133.87 399.59l14.98-1.84c2.21-.36 4.41.61 5.62 2.45a60.2 60.2 0 010 19.04c-1.21 1.84-3.41 2.8-5.62 2.45l-14.98-1.84c-1.66-.35-2.93-2.11-3.12-4.3v-11.66c.19-2.19 1.46-3.95 3.12-4.3zm-3.12 16.47l-3.96 3.15m3.96-6.66l-4.52 1.05m4.52-5.26l-4.52-1.4m4.52-2.1l-3.96-3.51m.21-1.05a62.738 62.738 0 000 19.63l-2.5 2.81c-1.7-8.31-1.7-16.94 0-25.24zM191.73 420.53l-14.98 1.84c-2.21.35-4.41-.61-5.62-2.46a60.138 60.138 0 010-19.03c1.21-1.85 3.41-2.81 5.62-2.46l14.98 1.84c1.66.36 2.93 2.11 3.12 4.3v11.67c-.19 2.19-1.46 3.94-3.12 4.3zm3.12-16.47l3.96-3.16m-3.96 6.66l4.52-1.05m-4.52 5.26l4.52 1.4m-4.52 2.11l3.96 3.5m-.21 1.05a62.738 62.738 0 000-19.63l2.5-2.8c1.7 8.3 1.7 16.93 0 25.24z"
      fill="#fff" stroke="#000" stroke-linejoin="round" stroke-miterlimit="10" />
    <ellipse cx="162.8" cy="410.06" rx="22" ry="22.16" fill="#fff" stroke="#000" /><text x="162.3" y="417.56"
      font-family="Helvetica" font-weight="bold" text-anchor="middle" font-size="22">104</text>
  </g>
  <g data-table="105" pointer-events="none">
    <path
      d="M233.98 439.22l-1.83-15.09c-.35-2.22.61-4.44 2.44-5.66a59.324 59.324 0 0118.9 0c1.83 1.22 2.79 3.44 2.44 5.66l-1.83 15.09c-.35 1.67-2.09 2.96-4.27 3.15h-11.58c-2.17-.19-3.92-1.48-4.27-3.15zm16.35 3.15l3.14 3.99m-6.62-3.99l1.04 4.55m-5.22-4.55l-1.39 4.55m-2.09-4.55l-3.48 3.99m-1.04-.22a61.265 61.265 0 0019.49 0l2.79 2.52a61.547 61.547 0 01-25.07 0z"
      fill="#fff" stroke="#000" stroke-linejoin="round" stroke-miterlimit="10" />
    <path
      d="M215.47 399.59l14.98-1.84c2.2-.35 4.41.61 5.62 2.46 1.01 6.3 1.01 12.73 0 19.03-1.21 1.85-3.42 2.81-5.62 2.46l-14.98-1.84c-1.66-.36-2.94-2.11-3.12-4.3v-11.67c.18-2.19 1.46-3.94 3.12-4.3zm-3.12 16.47l-3.96 3.16m3.96-6.66l-4.53 1.05m4.53-5.26l-4.53-1.4m4.53-2.11l-3.96-3.5m.21-1.05a62.738 62.738 0 000 19.63l-2.5 2.8a62.733 62.733 0 010-25.24zM273.3 420.53l-14.98 1.84c-2.2.35-4.41-.61-5.62-2.45a60.2 60.2 0 010-19.04c1.21-1.84 3.42-2.81 5.62-2.46l14.98 1.85c1.66.35 2.94 2.11 3.12 4.3v11.66c-.18 2.19-1.46 3.95-3.12 4.3zm3.12-16.47l3.96-3.15m-3.96 6.66l4.53-1.05m-4.53 5.25l4.53 1.4m-4.53 2.11l3.96 3.51m-.21 1.05c1.03-6.5 1.03-13.14 0-19.63l2.5-2.81c1.71 8.3 1.71 16.94 0 25.24z"
      fill="#fff" stroke="#000" stroke-linejoin="round" stroke-miterlimit="10" />
    <path
      d="M254.78 380.9l1.83 15.1c.35 2.21-.61 4.44-2.44 5.66a59.324 59.324 0 01-18.9 0c-1.83-1.22-2.79-3.45-2.44-5.66l1.83-15.1c.35-1.67 2.09-2.95 4.27-3.14h11.58c2.17.19 3.92 1.47 4.27 3.14zm-16.35-3.14l-3.14-3.99m6.62 3.99l-1.04-4.55m5.22 4.55l1.39-4.55m2.09 4.55l3.48-3.99m1.04.22a61.265 61.265 0 00-19.49 0l-2.79-2.52a61.547 61.547 0 0125.07 0z"
      fill="#fff" stroke="#000" stroke-linejoin="round" stroke-miterlimit="10" />
    <ellipse cx="244.38" cy="410.07" rx="22" ry="22.16" fill="#fff" stroke="#000" /><text x="243.88" y="417.57"
      font-family="Helvetica" font-weight="bold" text-anchor="middle" font-size="22">105</text>
  </g>
  <g data-table="106" pointer-events="none">
    <path
      d="M390.39 380.24l1.83 15.09c.35 2.22-.61 4.44-2.44 5.66a59.324 59.324 0 01-18.9 0c-1.83-1.22-2.79-3.44-2.44-5.66l1.83-15.09c.35-1.67 2.1-2.96 4.27-3.15h11.58c2.18.19 3.92 1.48 4.27 3.15zm-16.35-3.15l-3.13-3.98m6.61 3.98l-1.04-4.55m5.22 4.55l1.39-4.55m2.09 4.55l3.48-3.98m1.04.21a61.265 61.265 0 00-19.49 0l-2.79-2.52a61.547 61.547 0 0125.07 0z"
      fill="#fff" stroke="#000" stroke-linejoin="round" stroke-miterlimit="10" />
    <path
      d="M351.07 398.93l14.99-1.84c2.2-.35 4.4.61 5.61 2.46 1.01 6.3 1.01 12.73 0 19.03-1.21 1.85-3.41 2.81-5.61 2.46l-14.99-1.84c-1.66-.36-2.93-2.11-3.12-4.3v-11.67c.19-2.19 1.46-3.94 3.12-4.3zm-3.12 16.47l-3.96 3.16m3.96-6.67l-4.52 1.05m4.52-5.25l-4.52-1.4m4.52-2.11l-3.96-3.5m.21-1.05a63.346 63.346 0 000 19.63l-2.49 2.8a62.733 62.733 0 010-25.24zM408.92 419.87l-14.99 1.84c-2.2.36-4.4-.61-5.61-2.45a60.2 60.2 0 010-19.04 5.63 5.63 0 015.61-2.45l14.99 1.84c1.66.35 2.93 2.11 3.12 4.3v11.66c-.19 2.19-1.46 3.95-3.12 4.3zm3.12-16.47l3.96-3.15m-3.96 6.66l4.52-1.05m-4.52 5.26l4.52 1.4m-4.52 2.1l3.96 3.51m-.21 1.05a63.346 63.346 0 000-19.63l2.49-2.81a62.733 62.733 0 010 25.24z"
      fill="#fff" stroke="#000" stroke-linejoin="round" stroke-miterlimit="10" />
    <path
      d="M369.61 438.55l-1.83-15.09c-.35-2.22.61-4.44 2.44-5.66a59.324 59.324 0 0118.9 0c1.83 1.22 2.79 3.44 2.44 5.66l-1.83 15.09c-.35 1.67-2.1 2.96-4.27 3.15h-11.58c-2.18-.19-3.92-1.48-4.27-3.15zm16.35 3.15l3.13 3.98m-6.61-3.98l1.04 4.55m-5.22-4.55l-1.39 4.55m-2.09-4.55l-3.48 3.98m-1.04-.21a61.852 61.852 0 0019.49 0l2.79 2.51a61.547 61.547 0 01-25.07 0z"
      fill="#fff" stroke="#000" stroke-linejoin="round" stroke-miterlimit="10" />
    <ellipse cx="380" cy="409.4" rx="22" ry="22.16" fill="#fff" stroke="#000" /><text x="379.5" y="416.9"
      font-family="Helvetica" font-weight="bold" text-anchor="middle" font-size="22">106</text>
  </g>
  <g data-table="107" pointer-events="none">
    <path
      d="M390.39 463.86l1.83 15.09c.35 2.22-.61 4.44-2.44 5.66a59.324 59.324 0 01-18.9 0c-1.83-1.22-2.79-3.44-2.44-5.66l1.83-15.09c.35-1.67 2.1-2.96 4.27-3.15h11.58c2.18.19 3.92 1.48 4.27 3.15zm-16.35-3.15l-3.13-3.99m6.61 3.99l-1.04-4.55m5.22 4.55l1.39-4.55m2.09 4.55l3.48-3.99m1.04.22a61.265 61.265 0 00-19.49 0l-2.79-2.52a61.547 61.547 0 0125.07 0z"
      fill="#fff" stroke="#000" stroke-linejoin="round" stroke-miterlimit="10" />
    <path
      d="M351.07 482.55l14.98-1.84c2.21-.35 4.41.61 5.62 2.46 1.01 6.3 1.01 12.72 0 19.03-1.21 1.85-3.41 2.81-5.62 2.46l-14.98-1.84c-1.66-.36-2.93-2.11-3.12-4.3v-11.67c.19-2.19 1.46-3.95 3.12-4.3zm-3.12 16.47l-3.96 3.16m3.96-6.67l-4.52 1.05m4.52-5.25l-4.52-1.4m4.52-2.11l-3.96-3.5m.21-1.05a62.738 62.738 0 000 19.63l-2.5 2.8c-1.7-8.3-1.7-16.94 0-25.24z"
      fill="#fff" stroke="#000" stroke-linejoin="round" stroke-miterlimit="10" />
    <path
      d="M369.61 522.17l-1.83-15.09c-.35-2.22.61-4.44 2.44-5.66a59.324 59.324 0 0118.9 0c1.83 1.22 2.79 3.44 2.44 5.66l-1.83 15.09c-.35 1.67-2.1 2.96-4.27 3.15h-11.58c-2.18-.19-3.92-1.48-4.27-3.15zm16.35 3.15l3.13 3.98m-6.61-3.98l1.04 4.55m-5.22-4.55l-1.39 4.55m-2.09-4.55l-3.48 3.98m-1.04-.21a61.852 61.852 0 0019.49 0l2.79 2.51a61.547 61.547 0 01-25.07 0z"
      fill="#fff" stroke="#000" stroke-linejoin="round" stroke-miterlimit="10" />
    <path
      d="M408.92 503.49l-14.98 1.84c-2.21.36-4.41-.61-5.62-2.45a60.2 60.2 0 010-19.04c1.21-1.84 3.41-2.8 5.62-2.45l14.98 1.84c1.66.35 2.93 2.11 3.12 4.3v11.66c-.19 2.19-1.46 3.95-3.12 4.3zm3.12-16.47l3.96-3.15m-3.96 6.66l4.52-1.05m-4.52 5.26l4.52 1.4m-4.52 2.1l3.96 3.51m-.21 1.05a62.738 62.738 0 000-19.63l2.5-2.81c1.7 8.31 1.7 16.94 0 25.24z"
      fill="#fff" stroke="#000" stroke-linejoin="round" stroke-miterlimit="10" />
    <ellipse cx="380" cy="493.02" rx="22" ry="22.16" fill="#fff" stroke="#000" /><text x="379.5" y="500.52"
      font-family="Helvetica" font-weight="bold" text-anchor="middle" font-size="22">107</text>
  </g>
</svg>
