<svg xmlns="http://www.w3.org/2000/svg" viewBox="0 0 850 770.01"><g class="prefix__prefix__prefix__prefix__prefix__legends"><circle cx="660" cy="525" fill="#79d44f" r="15"/><text x="680" y="534" font-family="Helvetica" font-weight="bold" text-anchor="left" font-size="20" style="white-space:pre">- 2000р депозит</text><circle cx="660" cy="565" fill="#f1ef7a" r="15"/><text x="680" y="574" font-family="Helvetica" font-weight="bold" text-anchor="left" font-size="20" style="white-space:pre">- 2500р депозит</text><circle cx="660" cy="605" fill="#7ae8f1" r="15"/><text x="680" y="614" font-family="Helvetica" font-weight="bold" text-anchor="left" font-size="20" style="white-space:pre">- 3000р депозит</text><circle cx="660" cy="645" fill="#ff69b4" r="15"/><text x="680" y="654" font-family="Helvetica" font-weight="bold" text-anchor="left" font-size="20" style="white-space:pre">- 3500р депозит</text><circle cx="660" cy="685" fill="#a77af1" r="15"/><text x="680" y="694" font-family="Helvetica" font-weight="bold" text-anchor="left" font-size="20" style="white-space:pre">- 4000р депозит</text><circle cx="660" cy="725" fill="#fff" stroke="#000" r="15"/><text x="680" y="734" font-family="Helvetica" font-weight="bold" text-anchor="left" font-size="20" style="white-space:pre">- занят</text></g><path d="M658.009 489.818l.423-53.852c.845-107.376 66.206-188.422 144.156-200.202 12.82-1.938 26.789-3.006 42.012-2.86l5.205 255.93" transform="matrix(1.00632 0 0 1.00804 -6.17 -3.756)" fill="none" stroke="#000" stroke-width="1.98"/><text style="text-align:start;white-space:pre" x="763.893" y="377.492" transform="matrix(.96628 0 0 1.0349 -5 -4.99)" font-weight="700" font-size="20.82" font-family="sans-serif" stroke-width="1.952"><tspan x="763.893" y="377.492">Бар</tspan></text><path d="M635.352 452.252l9.882 1.19c1.453.22 2.907-.397 3.706-1.586a38.26 38.26 0 000-12.282c-.8-1.189-2.253-1.812-3.706-1.585l-9.882 1.19c-1.093.227-1.938 1.357-2.062 2.767v7.532c.124 1.41.969 2.547 2.062 2.774zm-2.062-10.63l-2.613-2.035m2.613 4.302l-2.98-.682m2.98 3.392l-2.98.903m2.98 1.358l-2.613 2.262m.144.682a39.51 39.51 0 010-12.665l-1.65-1.813a39.663 39.663 0 000 16.284zm5.065-27.07l9.74 2.046c1.428.347 2.93-.141 3.83-1.256a38.26 38.26 0 001.07-12.235c-.692-1.254-2.086-2.003-3.554-1.903l-9.947.324c-1.109.131-2.05 1.184-2.296 2.578l-.656 7.502c0 1.416.743 2.622 1.813 2.944zm-1.129-10.77l-2.425-2.254m2.228 4.513l-2.909-.94m2.673 3.64l-3.047.64m2.85 1.612l-2.8 2.025m.084.693a39.511 39.511 0 011.104-12.617l-1.486-1.95a39.663 39.663 0 00-1.42 16.222zm6.315-26.926l9.62 2.553c1.409.42 2.934.012 3.89-1.054a38.26 38.26 0 001.71-12.162c-.626-1.29-1.978-2.11-3.45-2.086l-9.95-.198c-1.115.073-2.108 1.075-2.428 2.454l-1.048 7.458c-.073 1.414.605 2.658 1.656 3.035zm-.563-10.815l-2.304-2.377m1.989 4.623l-2.856-1.09m2.479 3.774l-3.076.48m2.76 1.76l-2.901 1.875m.048.696a39.51 39.51 0 011.762-12.542l-1.382-2.025a39.663 39.663 0 00-2.266 16.126zm10.348-24.556l9.237 3.706c1.345.596 2.91.37 3.99-.572a38.259 38.259 0 003.179-11.863c-.464-1.355-1.708-2.328-3.17-2.49l-9.852-1.41c-1.115-.063-2.225.817-2.71 2.147l-1.95 7.275c-.245 1.394.279 2.705 1.276 3.207zm.758-10.796l-1.998-2.64m1.412 4.824l-2.703-1.424m2 4.048l-3.111.101m2.526 2.083l-3.109 1.508m-.036.69a39.511 39.511 0 013.278-12.233l-1.126-2.172a39.663 39.663 0 00-4.215 15.73zm12.206-24.273l8.88 4.49c1.29.704 2.868.62 4.026-.224a37.896 37.896 0 004.209-11.54c-.344-1.39-1.496-2.471-2.94-2.754l-9.695-2.256c-1.105-.16-2.287.614-2.88 1.899l-2.582 7.076c-.372 1.365.032 2.722.982 3.309zm1.71-10.69l-1.758-2.803m.981 4.933l-2.572-1.66m1.644 4.206l-3.116-.17m2.341 2.295l-3.23 1.232m-.105.688a39.896 39.896 0 014.34-11.898l-.924-2.265a39.67 39.67 0 00-5.58 15.3zm14.87-24.425l7.972 5.961c1.146.922 2.718 1.107 4.006.476a38.285 38.285 0 006.156-10.63c-.096-1.428-1.046-2.687-2.42-3.215l-9.16-3.908c-1.065-.343-2.358.217-3.172 1.376l-3.775 6.519c-.6 1.282-.44 2.68.394 3.421zm3.545-10.221l-1.245-3.064m.111 5.021l-2.243-2.07m.881 4.421l-3.034-.704m1.901 2.661l-3.397.655m-.218.662a39.577 39.577 0 016.352-10.968l-.524-2.386a39.69 39.69 0 00-8.163 14.095zm16.715-19.611l6.81 7.231c.967 1.104 2.485 1.556 3.866 1.157a38.415 38.415 0 007.933-9.397c.155-1.421-.557-2.829-1.819-3.584l-8.345-5.411c-.986-.526-2.364-.2-3.374.804l-4.86 5.758c-.816 1.158-.903 2.569-.211 3.442zm5.28-9.449l-.68-3.228m-.78 4.958l-1.844-2.427m.093 4.501l-2.868-1.215m1.408 2.945l-3.464.069m-.33.605a39.673 39.673 0 018.18-9.691l-.095-2.443a39.826 39.826 0 00-10.518 12.46zm19.282-17.89l5.873 7.994c.825 1.212 2.277 1.844 3.697 1.615a38.548 38.548 0 009.036-8.365c.329-1.39-.205-2.872-1.365-3.774l-7.623-6.375c-.914-.64-2.327-.48-3.45.39l-5.536 5.125c-.957 1.056-1.212 2.44-.632 3.39zm6.407-8.736l-.283-3.28m-1.38 4.82l-1.538-2.626m-.46 4.476l-2.7-1.55m1.036 3.09l-3.444-.354m-.403.56a40.19 40.19 0 019.317-8.626l.212-2.43a39.994 39.994 0 00-11.985 11.096zm21.892-15.34l5.136 8.457a3.756 3.756 0 003.54 1.92 38.851 38.851 0 009.755-7.564c.453-1.357.049-2.874-1.02-3.874l-7.026-6.993c-.853-.714-2.276-.674-3.473.097l-5.982 4.64c-1.044.965-1.422 2.322-.93 3.317zm7.17-8.157l.008-3.296m-1.804 4.689l-1.296-2.746m-.861 4.419l-2.551-1.773m.754 3.166l-3.404-.65m-.448.53a40.121 40.121 0 0110.06-7.802l.42-2.403a40.273 40.273 0 00-12.935 10.031z" fill="#fff" stroke="#000" stroke-linejoin="round" stroke-miterlimit="10" pointer-events="none" stroke-width=".652"/><g fill="#fff"><path stroke="#000" stroke-width="1.943" fill="none" d="M325.971 670.98h303.057v98.058H325.971z"/><text style="text-align:center;white-space:pre" x="479.021" y="722.421" transform="matrix(.98704 0 0 1.01313 -5 -4.99)" font-weight="700" font-size="22.511" font-family="sans-serif" text-anchor="middle" fill="#000" stroke-width="2.11"><tspan x="479.021" y="722.421">Сцена</tspan></text></g><text style="text-align:start;white-space:pre" x="142.773" y="83.754" transform="matrix(.97769 0 0 1.02282 -122 -48.99)" font-weight="700" font-size="21.066" font-family="sans-serif" stroke-width="1.975"><tspan x="142.773" y="83.754">Туалет</tspan></text><path d="M0 .01h10v710H0z"/><path d="M0 .01h850v10H0z"/><path d="M840 .01h10v490h-10zm-840 700h325v10H0z"/><path d="M315 700.01h10v70h-10z"/><path d="M315 760.01h314v10H315zm305-280h230v10H620z"/><path d="M620 480.01h10v290h-10zm-345-5h20v20h-20z"/><text style="text-align:center;white-space:pre" x="284.903" y="494.714" font-weight="700" font-size="13.333" font-family="sans-serif" text-anchor="middle" fill="#fff" stroke-width="1.007" transform="translate(0 -4.99)"><tspan x="284.903" y="494.714">К</tspan></text><path d="M615 225.01h20v20h-20z"/><text style="text-align:center;white-space:pre" x="284.903" y="494.714" font-weight="700" font-size="13.333" font-family="sans-serif" text-anchor="middle" fill="#fff" stroke-width="1.007" transform="translate(340 -254.99)"><tspan x="284.903" y="494.714">К</tspan></text><g stroke-width="2"><path table fill="#fff" stroke="#000" d="M211 690.01h80v30h-80z"/><text style="text-align:center;white-space:pre" x="252.979" y="715.51" font-weight="700" font-size="21.333" font-family="sans-serif" text-anchor="middle" transform="translate(-5 -4.99)"><tspan x="252.979" y="715.51">Вход</tspan></text></g><path d="M275.193 225.523h20v20h-20z"/><text style="text-align:center;white-space:pre" x="311.1" y="332.852" font-weight="700" font-size="13.333" font-family="sans-serif" text-anchor="middle" fill="#fff" stroke-width="1.007" transform="translate(-26.004 -92.616)"><tspan x="311.1" y="332.852" font-size="13.3" word-spacing="0">К</tspan></text><g data-table="107" transform="translate(417 -409.99)" style="text-align:start" font-weight="700" font-size="21.177" font-family="sans-serif"><path d="M210.465 524.23l1.83 15.09c.35 2.22-.61 4.44-2.44 5.66a59.324 59.324 0 01-18.9 0c-1.83-1.22-2.79-3.44-2.44-5.66l1.83-15.09c.35-1.67 2.1-2.96 4.27-3.15h11.58c2.18.19 3.92 1.48 4.27 3.15zm-16.35-3.15l-3.13-3.99m6.61 3.99l-1.04-4.55m5.22 4.55l1.39-4.55m2.09 4.55l3.48-3.99m1.04.22a61.265 61.265 0 00-19.49 0l-2.79-2.52a61.547 61.547 0 0125.07 0zm-20.09 65.23l-1.83-15.09c-.35-2.22.61-4.44 2.44-5.66a59.324 59.324 0 0118.9 0c1.83 1.22 2.79 3.44 2.44 5.66l-1.83 15.09c-.35 1.67-2.1 2.96-4.27 3.15h-11.58c-2.18-.19-3.92-1.48-4.27-3.15zm16.35 3.15l3.13 3.98m-6.61-3.98l1.04 4.55m-5.22-4.55l-1.39 4.55m-2.09-4.55l-3.48 3.98m-1.04-.21a61.852 61.852 0 0019.49 0l2.79 2.51a61.547 61.547 0 01-25.07 0z" fill="#fff" stroke="#000" stroke-linejoin="round" stroke-miterlimit="10" pointer-events="none"/><path d="M171.145 542.92l14.98-1.84c2.21-.35 4.41.61 5.62 2.46 1.01 6.3 1.01 12.72 0 19.03-1.21 1.85-3.41 2.81-5.62 2.46l-14.98-1.84c-1.66-.36-2.93-2.11-3.12-4.3v-11.67c.19-2.19 1.46-3.95 3.12-4.3zm-3.12 16.47l-3.96 3.16m3.96-6.67l-4.52 1.05m4.52-5.25l-4.52-1.4m4.52-2.11l-3.96-3.5m.21-1.05a62.738 62.738 0 000 19.63l-2.5 2.8c-1.7-8.3-1.7-16.94 0-25.24zm64.72 20.24l-14.98 1.84c-2.21.36-4.41-.61-5.62-2.45a60.2 60.2 0 010-19.04c1.21-1.84 3.41-2.8 5.62-2.45l14.98 1.84c1.66.35 2.93 2.11 3.12 4.3v11.66c-.19 2.19-1.46 3.95-3.12 4.3zm3.12-16.47l3.96-3.15m-3.96 6.66l4.52-1.05m-4.52 5.26l4.52 1.4m-4.52 2.1l3.96 3.51m-.21 1.05a62.738 62.738 0 000-19.63l2.5-2.81c1.7 8.31 1.7 16.94 0 25.24z" fill="#fff" stroke="#000" stroke-linejoin="round" stroke-miterlimit="10" pointer-events="none"/><ellipse table cx="832.15" cy="146.96" rx="22" ry="22.16" fill="#fff" stroke="#000" pointer-events="none" transform="translate(-632 406)"/><text x="182" y="562" style="white-space:pre">107</text></g><g data-table="106" transform="translate(323 -409.99)" style="text-align:start" font-weight="700" font-size="21.177" font-family="sans-serif"><path d="M210.465 524.23l1.83 15.09c.35 2.22-.61 4.44-2.44 5.66a59.324 59.324 0 01-18.9 0c-1.83-1.22-2.79-3.44-2.44-5.66l1.83-15.09c.35-1.67 2.1-2.96 4.27-3.15h11.58c2.18.19 3.92 1.48 4.27 3.15zm-16.35-3.15l-3.13-3.99m6.61 3.99l-1.04-4.55m5.22 4.55l1.39-4.55m2.09 4.55l3.48-3.99m1.04.22a61.265 61.265 0 00-19.49 0l-2.79-2.52a61.547 61.547 0 0125.07 0zm-20.09 65.23l-1.83-15.09c-.35-2.22.61-4.44 2.44-5.66a59.324 59.324 0 0118.9 0c1.83 1.22 2.79 3.44 2.44 5.66l-1.83 15.09c-.35 1.67-2.1 2.96-4.27 3.15h-11.58c-2.18-.19-3.92-1.48-4.27-3.15zm16.35 3.15l3.13 3.98m-6.61-3.98l1.04 4.55m-5.22-4.55l-1.39 4.55m-2.09-4.55l-3.48 3.98m-1.04-.21a61.852 61.852 0 0019.49 0l2.79 2.51a61.547 61.547 0 01-25.07 0z" fill="#fff" stroke="#000" stroke-linejoin="round" stroke-miterlimit="10" pointer-events="none"/><path d="M171.145 542.92l14.98-1.84c2.21-.35 4.41.61 5.62 2.46 1.01 6.3 1.01 12.72 0 19.03-1.21 1.85-3.41 2.81-5.62 2.46l-14.98-1.84c-1.66-.36-2.93-2.11-3.12-4.3v-11.67c.19-2.19 1.46-3.95 3.12-4.3zm-3.12 16.47l-3.96 3.16m3.96-6.67l-4.52 1.05m4.52-5.25l-4.52-1.4m4.52-2.11l-3.96-3.5m.21-1.05a62.738 62.738 0 000 19.63l-2.5 2.8c-1.7-8.3-1.7-16.94 0-25.24zm64.72 20.24l-14.98 1.84c-2.21.36-4.41-.61-5.62-2.45a60.2 60.2 0 010-19.04c1.21-1.84 3.41-2.8 5.62-2.45l14.98 1.84c1.66.35 2.93 2.11 3.12 4.3v11.66c-.19 2.19-1.46 3.95-3.12 4.3zm3.12-16.47l3.96-3.15m-3.96 6.66l4.52-1.05m-4.52 5.26l4.52 1.4m-4.52 2.1l3.96 3.51m-.21 1.05a62.738 62.738 0 000-19.63l2.5-2.81c1.7 8.31 1.7 16.94 0 25.24z" fill="#fff" stroke="#000" stroke-linejoin="round" stroke-miterlimit="10" pointer-events="none"/><ellipse table cx="832.15" cy="146.96" rx="22" ry="22.16" fill="#fff" stroke="#000" pointer-events="none" transform="translate(-632.075 406.43)"/><text x="182" y="562" style="white-space:pre">106</text></g><g data-table="105" transform="translate(228 -409.99)" style="text-align:start" font-weight="700" font-size="21.177" font-family="sans-serif"><path d="M210.465 524.23l1.83 15.09c.35 2.22-.61 4.44-2.44 5.66a59.324 59.324 0 01-18.9 0c-1.83-1.22-2.79-3.44-2.44-5.66l1.83-15.09c.35-1.67 2.1-2.96 4.27-3.15h11.58c2.18.19 3.92 1.48 4.27 3.15zm-16.35-3.15l-3.13-3.99m6.61 3.99l-1.04-4.55m5.22 4.55l1.39-4.55m2.09 4.55l3.48-3.99m1.04.22a61.265 61.265 0 00-19.49 0l-2.79-2.52a61.547 61.547 0 0125.07 0zm-20.09 65.23l-1.83-15.09c-.35-2.22.61-4.44 2.44-5.66a59.324 59.324 0 0118.9 0c1.83 1.22 2.79 3.44 2.44 5.66l-1.83 15.09c-.35 1.67-2.1 2.96-4.27 3.15h-11.58c-2.18-.19-3.92-1.48-4.27-3.15zm16.35 3.15l3.13 3.98m-6.61-3.98l1.04 4.55m-5.22-4.55l-1.39 4.55m-2.09-4.55l-3.48 3.98m-1.04-.21a61.852 61.852 0 0019.49 0l2.79 2.51a61.547 61.547 0 01-25.07 0z" fill="#fff" stroke="#000" stroke-linejoin="round" stroke-miterlimit="10" pointer-events="none"/><path d="M171.145 542.92l14.98-1.84c2.21-.35 4.41.61 5.62 2.46 1.01 6.3 1.01 12.72 0 19.03-1.21 1.85-3.41 2.81-5.62 2.46l-14.98-1.84c-1.66-.36-2.93-2.11-3.12-4.3v-11.67c.19-2.19 1.46-3.95 3.12-4.3zm-3.12 16.47l-3.96 3.16m3.96-6.67l-4.52 1.05m4.52-5.25l-4.52-1.4m4.52-2.11l-3.96-3.5m.21-1.05a62.738 62.738 0 000 19.63l-2.5 2.8c-1.7-8.3-1.7-16.94 0-25.24zm64.72 20.24l-14.98 1.84c-2.21.36-4.41-.61-5.62-2.45a60.2 60.2 0 010-19.04c1.21-1.84 3.41-2.8 5.62-2.45l14.98 1.84c1.66.35 2.93 2.11 3.12 4.3v11.66c-.19 2.19-1.46 3.95-3.12 4.3zm3.12-16.47l3.96-3.15m-3.96 6.66l4.52-1.05m-4.52 5.26l4.52 1.4m-4.52 2.1l3.96 3.51m-.21 1.05a62.738 62.738 0 000-19.63l2.5-2.81c1.7 8.31 1.7 16.94 0 25.24z" fill="#fff" stroke="#000" stroke-linejoin="round" stroke-miterlimit="10" pointer-events="none"/><ellipse table cx="832.15" cy="146.96" rx="22" ry="22.16" fill="#fff" stroke="#000" pointer-events="none" transform="translate(-632.075 406.43)"/><text style="text-align:center;white-space:pre" x="199.34" y="561.331" transform="scale(1.00089 .99911)" font-size="21.333" text-anchor="middle" stroke-width="1.008"><tspan x="199.34" y="561.331" style="-inkscape-font-specification:'sans-serif Bold'">105</tspan></text></g><g data-table="104" transform="translate(132 -409.99)" style="text-align:start" font-weight="700" font-size="21.177" font-family="sans-serif"><path d="M210.465 524.23l1.83 15.09c.35 2.22-.61 4.44-2.44 5.66a59.324 59.324 0 01-18.9 0c-1.83-1.22-2.79-3.44-2.44-5.66l1.83-15.09c.35-1.67 2.1-2.96 4.27-3.15h11.58c2.18.19 3.92 1.48 4.27 3.15zm-16.35-3.15l-3.13-3.99m6.61 3.99l-1.04-4.55m5.22 4.55l1.39-4.55m2.09 4.55l3.48-3.99m1.04.22a61.265 61.265 0 00-19.49 0l-2.79-2.52a61.547 61.547 0 0125.07 0zm-20.09 65.23l-1.83-15.09c-.35-2.22.61-4.44 2.44-5.66a59.324 59.324 0 0118.9 0c1.83 1.22 2.79 3.44 2.44 5.66l-1.83 15.09c-.35 1.67-2.1 2.96-4.27 3.15h-11.58c-2.18-.19-3.92-1.48-4.27-3.15zm16.35 3.15l3.13 3.98m-6.61-3.98l1.04 4.55m-5.22-4.55l-1.39 4.55m-2.09-4.55l-3.48 3.98m-1.04-.21a61.852 61.852 0 0019.49 0l2.79 2.51a61.547 61.547 0 01-25.07 0z" fill="#fff" stroke="#000" stroke-linejoin="round" stroke-miterlimit="10" pointer-events="none"/><path d="M171.145 542.92l14.98-1.84c2.21-.35 4.41.61 5.62 2.46 1.01 6.3 1.01 12.72 0 19.03-1.21 1.85-3.41 2.81-5.62 2.46l-14.98-1.84c-1.66-.36-2.93-2.11-3.12-4.3v-11.67c.19-2.19 1.46-3.95 3.12-4.3zm-3.12 16.47l-3.96 3.16m3.96-6.67l-4.52 1.05m4.52-5.25l-4.52-1.4m4.52-2.11l-3.96-3.5m.21-1.05a62.738 62.738 0 000 19.63l-2.5 2.8c-1.7-8.3-1.7-16.94 0-25.24zm64.72 20.24l-14.98 1.84c-2.21.36-4.41-.61-5.62-2.45a60.2 60.2 0 010-19.04c1.21-1.84 3.41-2.8 5.62-2.45l14.98 1.84c1.66.35 2.93 2.11 3.12 4.3v11.66c-.19 2.19-1.46 3.95-3.12 4.3zm3.12-16.47l3.96-3.15m-3.96 6.66l4.52-1.05m-4.52 5.26l4.52 1.4m-4.52 2.1l3.96 3.51m-.21 1.05a62.738 62.738 0 000-19.63l2.5-2.81c1.7 8.31 1.7 16.94 0 25.24z" fill="#fff" stroke="#000" stroke-linejoin="round" stroke-miterlimit="10" pointer-events="none"/><ellipse table cx="832.15" cy="146.96" rx="22" ry="22.16" fill="#fff" stroke="#000" pointer-events="none" transform="translate(-632.075 406.43)"/><text style="text-align:center;white-space:pre" x="199.34" y="561.331" transform="scale(1.00089 .99911)" font-size="21.333" text-anchor="middle" stroke-width="1.008"><tspan x="199.34" y="561.331" style="-inkscape-font-specification:'sans-serif Bold'">104</tspan></text></g><g data-table="103" transform="translate(34 -409.99)" style="text-align:start" font-weight="700" font-size="21.177" font-family="sans-serif"><path d="M210.465 524.23l1.83 15.09c.35 2.22-.61 4.44-2.44 5.66a59.324 59.324 0 01-18.9 0c-1.83-1.22-2.79-3.44-2.44-5.66l1.83-15.09c.35-1.67 2.1-2.96 4.27-3.15h11.58c2.18.19 3.92 1.48 4.27 3.15zm-16.35-3.15l-3.13-3.99m6.61 3.99l-1.04-4.55m5.22 4.55l1.39-4.55m2.09 4.55l3.48-3.99m1.04.22a61.265 61.265 0 00-19.49 0l-2.79-2.52a61.547 61.547 0 0125.07 0zm-20.09 65.23l-1.83-15.09c-.35-2.22.61-4.44 2.44-5.66a59.324 59.324 0 0118.9 0c1.83 1.22 2.79 3.44 2.44 5.66l-1.83 15.09c-.35 1.67-2.1 2.96-4.27 3.15h-11.58c-2.18-.19-3.92-1.48-4.27-3.15zm16.35 3.15l3.13 3.98m-6.61-3.98l1.04 4.55m-5.22-4.55l-1.39 4.55m-2.09-4.55l-3.48 3.98m-1.04-.21a61.852 61.852 0 0019.49 0l2.79 2.51a61.547 61.547 0 01-25.07 0z" fill="#fff" stroke="#000" stroke-linejoin="round" stroke-miterlimit="10" pointer-events="none"/><path d="M171.145 542.92l14.98-1.84c2.21-.35 4.41.61 5.62 2.46 1.01 6.3 1.01 12.72 0 19.03-1.21 1.85-3.41 2.81-5.62 2.46l-14.98-1.84c-1.66-.36-2.93-2.11-3.12-4.3v-11.67c.19-2.19 1.46-3.95 3.12-4.3zm-3.12 16.47l-3.96 3.16m3.96-6.67l-4.52 1.05m4.52-5.25l-4.52-1.4m4.52-2.11l-3.96-3.5m.21-1.05a62.738 62.738 0 000 19.63l-2.5 2.8c-1.7-8.3-1.7-16.94 0-25.24zm64.72 20.24l-14.98 1.84c-2.21.36-4.41-.61-5.62-2.45a60.2 60.2 0 010-19.04c1.21-1.84 3.41-2.8 5.62-2.45l14.98 1.84c1.66.35 2.93 2.11 3.12 4.3v11.66c-.19 2.19-1.46 3.95-3.12 4.3zm3.12-16.47l3.96-3.15m-3.96 6.66l4.52-1.05m-4.52 5.26l4.52 1.4m-4.52 2.1l3.96 3.51m-.21 1.05a62.738 62.738 0 000-19.63l2.5-2.81c1.7 8.31 1.7 16.94 0 25.24z" fill="#fff" stroke="#000" stroke-linejoin="round" stroke-miterlimit="10" pointer-events="none"/><ellipse table cx="832.15" cy="146.96" rx="22" ry="22.16" fill="#fff" stroke="#000" pointer-events="none" transform="translate(-632.075 406.43)"/><text style="text-align:center;white-space:pre" x="199.34" y="561.331" transform="scale(1.00089 .99911)" font-size="21.333" text-anchor="middle" stroke-width="1.008"><tspan x="199.34" y="561.331" style="-inkscape-font-specification:'sans-serif Bold'">103</tspan></text></g><g data-table="102" transform="rotate(-90 -78.476 -154.703)" style="text-align:start;transform-origin:200.07px 544.525px" font-weight="700" font-size="21.177" font-family="sans-serif"><path d="M210.465 524.23l1.83 15.09c.35 2.22-.61 4.44-2.44 5.66a59.324 59.324 0 01-18.9 0c-1.83-1.22-2.79-3.44-2.44-5.66l1.83-15.09c.35-1.67 2.1-2.96 4.27-3.15h11.58c2.18.19 3.92 1.48 4.27 3.15zm-16.35-3.15l-3.13-3.99m6.61 3.99l-1.04-4.55m5.22 4.55l1.39-4.55m2.09 4.55l3.48-3.99m1.04.22a61.265 61.265 0 00-19.49 0l-2.79-2.52a61.547 61.547 0 0125.07 0z" fill="#fff" stroke="#000" stroke-linejoin="round" stroke-miterlimit="10" pointer-events="none"/><path d="M171.145 542.92l14.98-1.84c2.21-.35 4.41.61 5.62 2.46 1.01 6.3 1.01 12.72 0 19.03-1.21 1.85-3.41 2.81-5.62 2.46l-14.98-1.84c-1.66-.36-2.93-2.11-3.12-4.3v-11.67c.19-2.19 1.46-3.95 3.12-4.3zm-3.12 16.47l-3.96 3.16m3.96-6.67l-4.52 1.05m4.52-5.25l-4.52-1.4m4.52-2.11l-3.96-3.5m.21-1.05a62.738 62.738 0 000 19.63l-2.5 2.8c-1.7-8.3-1.7-16.94 0-25.24zm64.72 20.24l-14.98 1.84c-2.21.36-4.41-.61-5.62-2.45a60.2 60.2 0 010-19.04c1.21-1.84 3.41-2.8 5.62-2.45l14.98 1.84c1.66.35 2.93 2.11 3.12 4.3v11.66c-.19 2.19-1.46 3.95-3.12 4.3zm3.12-16.47l3.96-3.15m-3.96 6.66l4.52-1.05m-4.52 5.26l4.52 1.4m-4.52 2.1l3.96 3.51m-.21 1.05a62.738 62.738 0 000-19.63l2.5-2.81c1.7 8.31 1.7 16.94 0 25.24z" fill="#fff" stroke="#000" stroke-linejoin="round" stroke-miterlimit="10" pointer-events="none"/><ellipse table cx="832.15" cy="146.96" rx="22" ry="22.16" fill="#fff" stroke="#000" pointer-events="none" transform="translate(-632.075 406.43)"/><text style="text-align:center;white-space:pre;transform-box:fill-box;transform-origin:50% 50%" x="199.34" y="561.331" transform="matrix(0 1.00089 -.99911 0 .177 -.49)" font-size="21.333" text-anchor="middle" stroke-width="1.008"><tspan x="199.34" y="561.331" style="-inkscape-font-specification:'sans-serif Bold'">102</tspan></text></g><g data-table="101" transform="translate(85.231 -142.29)" style="text-align:start" font-weight="700" font-size="21.177" font-family="sans-serif"><path d="M210.465 524.23l1.83 15.09c.35 2.22-.61 4.44-2.44 5.66a59.324 59.324 0 01-18.9 0c-1.83-1.22-2.79-3.44-2.44-5.66l1.83-15.09c.35-1.67 2.1-2.96 4.27-3.15h11.58c2.18.19 3.92 1.48 4.27 3.15zm-16.35-3.15l-3.13-3.99m6.61 3.99l-1.04-4.55m5.22 4.55l1.39-4.55m2.09 4.55l3.48-3.99m1.04.22a61.265 61.265 0 00-19.49 0l-2.79-2.52a61.547 61.547 0 0125.07 0zm-20.09 65.23l-1.83-15.09c-.35-2.22.61-4.44 2.44-5.66a59.324 59.324 0 0118.9 0c1.83 1.22 2.79 3.44 2.44 5.66l-1.83 15.09c-.35 1.67-2.1 2.96-4.27 3.15h-11.58c-2.18-.19-3.92-1.48-4.27-3.15zm16.35 3.15l3.13 3.98m-6.61-3.98l1.04 4.55m-5.22-4.55l-1.39 4.55m-2.09-4.55l-3.48 3.98m-1.04-.21a61.852 61.852 0 0019.49 0l2.79 2.51a61.547 61.547 0 01-25.07 0z" fill="#fff" stroke="#000" stroke-linejoin="round" stroke-miterlimit="10" pointer-events="none"/><path d="M171.145 542.92l14.98-1.84c2.21-.35 4.41.61 5.62 2.46 1.01 6.3 1.01 12.72 0 19.03-1.21 1.85-3.41 2.81-5.62 2.46l-14.98-1.84c-1.66-.36-2.93-2.11-3.12-4.3v-11.67c.19-2.19 1.46-3.95 3.12-4.3zm-3.12 16.47l-3.96 3.16m3.96-6.67l-4.52 1.05m4.52-5.25l-4.52-1.4m4.52-2.11l-3.96-3.5m.21-1.05a62.738 62.738 0 000 19.63l-2.5 2.8c-1.7-8.3-1.7-16.94 0-25.24z" fill="#fff" stroke="#000" stroke-linejoin="round" stroke-miterlimit="10" pointer-events="none"/><ellipse table cx="832.15" cy="146.96" rx="22" ry="22.16" fill="#fff" stroke="#000" pointer-events="none" transform="translate(-632.075 406.43)"/><text style="text-align:center;white-space:pre" x="199.34" y="561.331" transform="scale(1.00089 .99911)" font-size="21.333" text-anchor="middle" stroke-width="1.008"><tspan x="199.34" y="561.331" style="-inkscape-font-specification:'sans-serif Bold'">101</tspan></text></g><g data-table="18" style="text-align:start" font-weight="700" font-size="21.177" font-family="sans-serif"><path d="M189.817 242.71l-10.25 1.28c-1.51.24-3.02-.43-3.85-1.7-.69-4.36-.69-8.79 0-13.15a3.876 3.876 0 013.85-1.7l10.25 1.27c1.13.25 2 1.46 2.13 2.97v8.06c-.13 1.52-1 2.73-2.13 2.97z" fill="#fff" stroke="#000" stroke-miterlimit="10" pointer-events="none"/><path d="M192.157 242.38c-.13.36-.56.55-.95.43-.4-.12-.61-.5-.48-.85 1.03-4.19 1.03-8.54 0-12.73.08-.26.3-.47.59-.56.29-.08.6-.03.84.14 1.18 4.46 1.18 9.11 0 13.57m-54.9-13.67l10.25-1.28c1.51-.24 3.02.43 3.85 1.7.69 4.36.69 8.79 0 13.15a3.876 3.876 0 01-3.85 1.7l-10.25-1.27c-1.13-.25-2-1.46-2.13-2.97v-8.06c.13-1.52 1-2.73 2.13-2.97z" fill="#fff" stroke="#000" stroke-miterlimit="10" pointer-events="none"/><path d="M134.917 229.04c.13-.36.56-.55.95-.43.4.12.61.5.48.85a26.608 26.608 0 000 12.73c-.08.26-.3.47-.59.56-.29.08-.6.03-.84-.14a26.452 26.452 0 010-13.57m54.9 39.17l-10.25 1.28c-1.51.24-3.02-.43-3.85-1.7-.69-4.36-.69-8.79 0-13.15a3.876 3.876 0 013.85-1.7l10.25 1.27c1.13.25 2 1.46 2.13 2.97v8.06c-.13 1.52-1 2.73-2.13 2.97z" fill="#fff" stroke="#000" stroke-miterlimit="10" pointer-events="none"/><path d="M192.157 267.88c-.13.36-.56.55-.95.43-.4-.12-.61-.5-.48-.85 1.03-4.19 1.03-8.54 0-12.73.08-.26.3-.47.59-.56.29-.08.6-.03.84.14 1.18 4.46 1.18 9.11 0 13.57m-54.9-13.67l10.25-1.28c1.51-.24 3.02.43 3.85 1.7.69 4.36.69 8.79 0 13.15a3.876 3.876 0 01-3.85 1.7l-10.25-1.27c-1.13-.25-2-1.46-2.13-2.97v-8.06c.13-1.52 1-2.73 2.13-2.97z" fill="#fff" stroke="#000" stroke-miterlimit="10" pointer-events="none"/><path d="M134.917 254.54c.13-.36.56-.55.95-.43.4.12.61.5.48.85a26.608 26.608 0 000 12.73c-.08.26-.3.47-.59.56-.29.08-.6.03-.84-.14a26.452 26.452 0 010-13.57" fill="#fff" stroke="#000" stroke-miterlimit="10" pointer-events="none"/><path table fill="#fff" stroke="#000" pointer-events="none" d="M142.247 214.39v68.11h42.57v-68.11z"/><text style="text-align:start;white-space:pre" x="234.229" y="412.865" transform="matrix(1.00016 0 0 .98729 -86.503 -151.407)" font-size="21.333" stroke-width="2"><tspan x="237" y="412">18</tspan></text></g><g data-table="17" style="text-align:start" font-weight="700" font-size="21.177" font-family="sans-serif"><path d="M190.344 355.305l-10.25 1.28c-1.51.24-3.02-.43-3.85-1.7-.69-4.36-.69-8.79 0-13.15a3.876 3.876 0 013.85-1.7l10.25 1.27c1.13.25 2 1.46 2.13 2.97v8.06c-.13 1.52-1 2.73-2.13 2.97z" fill="#fff" stroke="#000" stroke-miterlimit="10" pointer-events="none"/><path d="M192.684 354.975c-.13.36-.56.55-.95.43-.4-.12-.61-.5-.48-.85 1.03-4.19 1.03-8.54 0-12.73.08-.26.3-.47.59-.56.29-.08.6-.03.84.14 1.18 4.46 1.18 9.11 0 13.57m-54.9-13.67l10.25-1.28c1.51-.24 3.02.43 3.85 1.7.69 4.36.69 8.79 0 13.15a3.876 3.876 0 01-3.85 1.7l-10.25-1.27c-1.13-.25-2-1.46-2.13-2.97v-8.06c.13-1.52 1-2.73 2.13-2.97z" fill="#fff" stroke="#000" stroke-miterlimit="10" pointer-events="none"/><path d="M135.444 341.635c.13-.36.56-.55.95-.43.4.12.61.5.48.85a26.608 26.608 0 000 12.73c-.08.26-.3.47-.59.56-.29.08-.6.03-.84-.14a26.452 26.452 0 010-13.57m54.9 39.17l-10.25 1.28c-1.51.24-3.02-.43-3.85-1.7-.69-4.36-.69-8.79 0-13.15a3.876 3.876 0 013.85-1.7l10.25 1.27c1.13.25 2 1.46 2.13 2.97v8.06c-.13 1.52-1 2.73-2.13 2.97z" fill="#fff" stroke="#000" stroke-miterlimit="10" pointer-events="none"/><path d="M192.684 380.475c-.13.36-.56.55-.95.43-.4-.12-.61-.5-.48-.85 1.03-4.19 1.03-8.54 0-12.73.08-.26.3-.47.59-.56.29-.08.6-.03.84.14 1.18 4.46 1.18 9.11 0 13.57m-54.9-13.67l10.25-1.28c1.51-.24 3.02.43 3.85 1.7.69 4.36.69 8.79 0 13.15a3.876 3.876 0 01-3.85 1.7l-10.25-1.27c-1.13-.25-2-1.46-2.13-2.97v-8.06c.13-1.52 1-2.73 2.13-2.97z" fill="#fff" stroke="#000" stroke-miterlimit="10" pointer-events="none"/><path d="M135.444 367.135c.13-.36.56-.55.95-.43.4.12.61.5.48.85a26.608 26.608 0 000 12.73c-.08.26-.3.47-.59.56-.29.08-.6.03-.84-.14a26.452 26.452 0 010-13.57" fill="#fff" stroke="#000" stroke-miterlimit="10" pointer-events="none"/><path table fill="#fff" stroke="#000" pointer-events="none" d="M142.774 326.985v68.11h42.57v-68.11z"/><text style="text-align:start;white-space:pre" x="154.229" y="412.552" transform="matrix(1.00016 0 0 .98729 -5.963 -38.811)" font-size="21.333" stroke-width="2"><tspan x="157" y="412">17</tspan></text></g><g data-table="16" style="text-align:start" font-weight="700" font-size="21.177" font-family="sans-serif"><path d="M160.89 526.29l-1.28-10.25c-.24-1.51.43-3.02 1.7-3.85 4.36-.69 8.79-.69 13.15 0 1.27.83 1.94 2.34 1.7 3.85l-1.27 10.25c-.25 1.13-1.46 2-2.97 2.13h-8.06c-1.52-.13-2.73-1-2.97-2.13z" fill="#fff" stroke="#000" stroke-miterlimit="10" pointer-events="none"/><path d="M161.22 528.63c-.36-.13-.55-.56-.43-.95.12-.4.5-.61.85-.48 4.19 1.03 8.54 1.03 12.73 0 .26.08.47.3.56.59.08.29.03.6-.14.84a26.452 26.452 0 01-13.57 0m13.67-54.9l1.28 10.25c.24 1.51-.43 3.02-1.7 3.85-4.36.69-8.79.69-13.15 0a3.876 3.876 0 01-1.7-3.85l1.27-10.25c.25-1.13 1.46-2 2.97-2.13h8.06c1.52.13 2.73 1 2.97 2.13z" fill="#fff" stroke="#000" stroke-miterlimit="10" pointer-events="none"/><path d="M174.56 471.39c.36.13.55.56.43.95-.12.4-.5.61-.85.48a26.608 26.608 0 00-12.73 0 .873.873 0 01-.56-.59c-.08-.29-.03-.6.14-.84 4.46-1.18 9.11-1.18 13.57 0m-39.17 54.9l-1.28-10.25c-.24-1.51.43-3.02 1.7-3.85 4.36-.69 8.79-.69 13.15 0 1.27.83 1.94 2.34 1.7 3.85l-1.27 10.25c-.25 1.13-1.46 2-2.97 2.13h-8.06c-1.52-.13-2.73-1-2.97-2.13z" fill="#fff" stroke="#000" stroke-miterlimit="10" pointer-events="none"/><path d="M135.72 528.63c-.36-.13-.55-.56-.43-.95.12-.4.5-.61.85-.48 4.19 1.03 8.54 1.03 12.73 0 .26.08.47.3.56.59.08.29.03.6-.14.84a26.452 26.452 0 01-13.57 0m13.67-54.9l1.28 10.25c.24 1.51-.43 3.02-1.7 3.85-4.36.69-8.79.69-13.15 0a3.876 3.876 0 01-1.7-3.85l1.27-10.25c.25-1.13 1.46-2 2.97-2.13h8.06c1.52.13 2.73 1 2.97 2.13z" fill="#fff" stroke="#000" stroke-miterlimit="10" pointer-events="none"/><path d="M149.06 471.39c.36.13.55.56.43.95-.12.4-.5.61-.85.48a26.608 26.608 0 00-12.73 0 .873.873 0 01-.56-.59c-.08-.29-.03-.6.14-.84 4.46-1.18 9.11-1.18 13.57 0" fill="#fff" stroke="#000" stroke-miterlimit="10" pointer-events="none"/><path table fill="#fff" stroke="#000" pointer-events="none" d="M189.21 478.72H121.1v42.57h68.11z"/><text style="text-align:start;white-space:pre" x="139.201" y="514.982" transform="matrix(.99498 0 0 .99243 2.126 -5.071)" font-size="20.736" stroke-width="1.944"><tspan x="139.201" y="514.982">16</tspan></text></g><g data-table="15" style="text-align:start" font-weight="700" font-size="21.177" font-family="sans-serif"><path d="M160.89 601.29l-1.28-10.25c-.24-1.51.43-3.02 1.7-3.85 4.36-.69 8.79-.69 13.15 0 1.27.83 1.94 2.34 1.7 3.85l-1.27 10.25c-.25 1.13-1.46 2-2.97 2.13h-8.06c-1.52-.13-2.73-1-2.97-2.13z" fill="#fff" stroke="#000" stroke-miterlimit="10" pointer-events="none"/><path d="M161.22 603.63c-.36-.13-.55-.56-.43-.95.12-.4.5-.61.85-.48 4.19 1.03 8.54 1.03 12.73 0 .26.08.47.3.56.59.08.29.03.6-.14.84a26.452 26.452 0 01-13.57 0m13.67-54.9l1.28 10.25c.24 1.51-.43 3.02-1.7 3.85-4.36.69-8.79.69-13.15 0a3.876 3.876 0 01-1.7-3.85l1.27-10.25c.25-1.13 1.46-2 2.97-2.13h8.06c1.52.13 2.73 1 2.97 2.13z" fill="#fff" stroke="#000" stroke-miterlimit="10" pointer-events="none"/><path d="M174.56 546.39c.36.13.55.56.43.95-.12.4-.5.61-.85.48a26.608 26.608 0 00-12.73 0 .873.873 0 01-.56-.59c-.08-.29-.03-.6.14-.84 4.46-1.18 9.11-1.18 13.57 0m-39.17 54.9l-1.28-10.25c-.24-1.51.43-3.02 1.7-3.85 4.36-.69 8.79-.69 13.15 0 1.27.83 1.94 2.34 1.7 3.85l-1.27 10.25c-.25 1.13-1.46 2-2.97 2.13h-8.06c-1.52-.13-2.73-1-2.97-2.13z" fill="#fff" stroke="#000" stroke-miterlimit="10" pointer-events="none"/><path d="M135.72 603.63c-.36-.13-.55-.56-.43-.95.12-.4.5-.61.85-.48 4.19 1.03 8.54 1.03 12.73 0 .26.08.47.3.56.59.08.29.03.6-.14.84a26.452 26.452 0 01-13.57 0m13.67-54.9l1.28 10.25c.24 1.51-.43 3.02-1.7 3.85-4.36.69-8.79.69-13.15 0a3.876 3.876 0 01-1.7-3.85l1.27-10.25c.25-1.13 1.46-2 2.97-2.13h8.06c1.52.13 2.73 1 2.97 2.13z" fill="#fff" stroke="#000" stroke-miterlimit="10" pointer-events="none"/><path d="M149.06 546.39c.36.13.55.56.43.95-.12.4-.5.61-.85.48a26.608 26.608 0 00-12.73 0 .873.873 0 01-.56-.59c-.08-.29-.03-.6.14-.84 4.46-1.18 9.11-1.18 13.57 0" fill="#fff" stroke="#000" stroke-miterlimit="10" pointer-events="none"/><path table fill="#fff" stroke="#000" pointer-events="none" d="M189.21 553.72H121.1v42.57h68.11z"/><text style="text-align:start;white-space:pre" x="139.201" y="591.574" transform="matrix(.99498 0 0 .99243 2.126 -5.083)" font-size="20.736" stroke-width="1.944"><tspan x="139.201" y="591.574">15</tspan></text></g><g data-table="14" style="text-align:start" font-weight="700" font-size="21.177" font-family="sans-serif"><path d="M160.89 676.29l-1.28-10.25c-.24-1.51.43-3.02 1.7-3.85 4.36-.69 8.79-.69 13.15 0 1.27.83 1.94 2.34 1.7 3.85l-1.27 10.25c-.25 1.13-1.46 2-2.97 2.13h-8.06c-1.52-.13-2.73-1-2.97-2.13z" fill="#fff" stroke="#000" stroke-miterlimit="10" pointer-events="none"/><path d="M161.22 678.63c-.36-.13-.55-.56-.43-.95.12-.4.5-.61.85-.48 4.19 1.03 8.54 1.03 12.73 0 .26.08.47.3.56.59.08.29.03.6-.14.84a26.452 26.452 0 01-13.57 0m13.67-54.9l1.28 10.25c.24 1.51-.43 3.02-1.7 3.85-4.36.69-8.79.69-13.15 0a3.876 3.876 0 01-1.7-3.85l1.27-10.25c.25-1.13 1.46-2 2.97-2.13h8.06c1.52.13 2.73 1 2.97 2.13z" fill="#fff" stroke="#000" stroke-miterlimit="10" pointer-events="none"/><path d="M174.56 621.39c.36.13.55.56.43.95-.12.4-.5.61-.85.48a26.608 26.608 0 00-12.73 0 .873.873 0 01-.56-.59c-.08-.29-.03-.6.14-.84 4.46-1.18 9.11-1.18 13.57 0m-39.17 54.9l-1.28-10.25c-.24-1.51.43-3.02 1.7-3.85 4.36-.69 8.79-.69 13.15 0 1.27.83 1.94 2.34 1.7 3.85l-1.27 10.25c-.25 1.13-1.46 2-2.97 2.13h-8.06c-1.52-.13-2.73-1-2.97-2.13z" fill="#fff" stroke="#000" stroke-miterlimit="10" pointer-events="none"/><path d="M135.72 678.63c-.36-.13-.55-.56-.43-.95.12-.4.5-.61.85-.48 4.19 1.03 8.54 1.03 12.73 0 .26.08.47.3.56.59.08.29.03.6-.14.84a26.452 26.452 0 01-13.57 0m13.67-54.9l1.28 10.25c.24 1.51-.43 3.02-1.7 3.85-4.36.69-8.79.69-13.15 0a3.876 3.876 0 01-1.7-3.85l1.27-10.25c.25-1.13 1.46-2 2.97-2.13h8.06c1.52.13 2.73 1 2.97 2.13z" fill="#fff" stroke="#000" stroke-miterlimit="10" pointer-events="none"/><path d="M149.06 621.39c.36.13.55.56.43.95-.12.4-.5.61-.85.48a26.608 26.608 0 00-12.73 0 .873.873 0 01-.56-.59c-.08-.29-.03-.6.14-.84 4.46-1.18 9.11-1.18 13.57 0" fill="#fff" stroke="#000" stroke-miterlimit="10" pointer-events="none"/><path table fill="#fff" stroke="#000" pointer-events="none" d="M189.21 628.72H121.1v42.57h68.11z"/><text style="text-align:start;white-space:pre" x="139.201" y="667.159" transform="matrix(.99498 0 0 .99243 2.126 -5.095)" font-size="20.736" stroke-width="1.944"><tspan x="139.201" y="667.159">14</tspan></text></g><g data-table="13" style="text-align:start" font-weight="700" font-size="21.177" font-family="sans-serif"><path d="M65.89 526.29l-1.28-10.25c-.24-1.51.43-3.02 1.7-3.85 4.36-.69 8.79-.69 13.15 0 1.27.83 1.94 2.34 1.7 3.85l-1.27 10.25c-.25 1.13-1.46 2-2.97 2.13h-8.06c-1.52-.13-2.73-1-2.97-2.13z" fill="#fff" stroke="#000" stroke-miterlimit="10" pointer-events="none"/><path d="M66.22 528.63c-.36-.13-.55-.56-.43-.95.12-.4.5-.61.85-.48 4.19 1.03 8.54 1.03 12.73 0 .26.08.47.3.56.59.08.29.03.6-.14.84a26.452 26.452 0 01-13.57 0m13.67-54.9l1.28 10.25c.24 1.51-.43 3.02-1.7 3.85-4.36.69-8.79.69-13.15 0a3.876 3.876 0 01-1.7-3.85l1.27-10.25c.25-1.13 1.46-2 2.97-2.13h8.06c1.52.13 2.73 1 2.97 2.13z" fill="#fff" stroke="#000" stroke-miterlimit="10" pointer-events="none"/><path d="M79.56 471.39c.36.13.55.56.43.95-.12.4-.5.61-.85.48a26.608 26.608 0 00-12.73 0 .873.873 0 01-.56-.59c-.08-.29-.03-.6.14-.84 4.46-1.18 9.11-1.18 13.57 0m-39.17 54.9l-1.28-10.25c-.24-1.51.43-3.02 1.7-3.85 4.36-.69 8.79-.69 13.15 0 1.27.83 1.94 2.34 1.7 3.85l-1.27 10.25c-.25 1.13-1.46 2-2.97 2.13h-8.06c-1.52-.13-2.73-1-2.97-2.13z" fill="#fff" stroke="#000" stroke-miterlimit="10" pointer-events="none"/><path d="M40.72 528.63c-.36-.13-.55-.56-.43-.95.12-.4.5-.61.85-.48 4.19 1.03 8.54 1.03 12.73 0 .26.08.47.3.56.59.08.29.03.6-.14.84a26.452 26.452 0 01-13.57 0m13.67-54.9l1.28 10.25c.24 1.51-.43 3.02-1.7 3.85-4.36.69-8.79.69-13.15 0a3.876 3.876 0 01-1.7-3.85l1.27-10.25c.25-1.13 1.46-2 2.97-2.13h8.06c1.52.13 2.73 1 2.97 2.13z" fill="#fff" stroke="#000" stroke-miterlimit="10" pointer-events="none"/><path d="M54.06 471.39c.36.13.55.56.43.95-.12.4-.5.61-.85.48a26.608 26.608 0 00-12.73 0 .873.873 0 01-.56-.59c-.08-.29-.03-.6.14-.84 4.46-1.18 9.11-1.18 13.57 0" fill="#fff" stroke="#000" stroke-miterlimit="10" pointer-events="none"/><path table fill="#fff" stroke="#000" pointer-events="none" d="M94.21 478.72H26.1v42.57h68.11z"/><text style="text-align:start;white-space:pre" x="48" y="512" transform="translate(0 -4.99)" font-size="20.736" stroke-width="1.944"><tspan>13</tspan></text></g><g data-table="12" style="text-align:start" font-weight="700" font-size="21.177" font-family="sans-serif"><path d="M65.89 601.29l-1.28-10.25c-.24-1.51.43-3.02 1.7-3.85 4.36-.69 8.79-.69 13.15 0 1.27.83 1.94 2.34 1.7 3.85l-1.27 10.25c-.25 1.13-1.46 2-2.97 2.13h-8.06c-1.52-.13-2.73-1-2.97-2.13z" fill="#fff" stroke="#000" stroke-miterlimit="10" pointer-events="none"/><path d="M66.22 603.63c-.36-.13-.55-.56-.43-.95.12-.4.5-.61.85-.48 4.19 1.03 8.54 1.03 12.73 0 .26.08.47.3.56.59.08.29.03.6-.14.84a26.452 26.452 0 01-13.57 0m13.67-54.9l1.28 10.25c.24 1.51-.43 3.02-1.7 3.85-4.36.69-8.79.69-13.15 0a3.876 3.876 0 01-1.7-3.85l1.27-10.25c.25-1.13 1.46-2 2.97-2.13h8.06c1.52.13 2.73 1 2.97 2.13z" fill="#fff" stroke="#000" stroke-miterlimit="10" pointer-events="none"/><path d="M79.56 546.39c.36.13.55.56.43.95-.12.4-.5.61-.85.48a26.608 26.608 0 00-12.73 0 .873.873 0 01-.56-.59c-.08-.29-.03-.6.14-.84 4.46-1.18 9.11-1.18 13.57 0m-39.17 54.9l-1.28-10.25c-.24-1.51.43-3.02 1.7-3.85 4.36-.69 8.79-.69 13.15 0 1.27.83 1.94 2.34 1.7 3.85l-1.27 10.25c-.25 1.13-1.46 2-2.97 2.13h-8.06c-1.52-.13-2.73-1-2.97-2.13z" fill="#fff" stroke="#000" stroke-miterlimit="10" pointer-events="none"/><path d="M40.72 603.63c-.36-.13-.55-.56-.43-.95.12-.4.5-.61.85-.48 4.19 1.03 8.54 1.03 12.73 0 .26.08.47.3.56.59.08.29.03.6-.14.84a26.452 26.452 0 01-13.57 0m13.67-54.9l1.28 10.25c.24 1.51-.43 3.02-1.7 3.85-4.36.69-8.79.69-13.15 0a3.876 3.876 0 01-1.7-3.85l1.27-10.25c.25-1.13 1.46-2 2.97-2.13h8.06c1.52.13 2.73 1 2.97 2.13z" fill="#fff" stroke="#000" stroke-miterlimit="10" pointer-events="none"/><path d="M54.06 546.39c.36.13.55.56.43.95-.12.4-.5.61-.85.48a26.608 26.608 0 00-12.73 0 .873.873 0 01-.56-.59c-.08-.29-.03-.6.14-.84 4.46-1.18 9.11-1.18 13.57 0" fill="#fff" stroke="#000" stroke-miterlimit="10" pointer-events="none"/><path table fill="#fff" stroke="#000" pointer-events="none" d="M94.21 553.72H26.1v42.57h68.11z"/><text style="text-align:start;white-space:pre" x="48" y="588" transform="translate(0 -4.99)" font-size="20.736" stroke-width="1.944"><tspan>12</tspan></text></g><g data-table="11" style="text-align:start" font-weight="700" font-size="21.177" font-family="sans-serif"><path d="M65.89 676.29l-1.28-10.25c-.24-1.51.43-3.02 1.7-3.85 4.36-.69 8.79-.69 13.15 0 1.27.83 1.94 2.34 1.7 3.85l-1.27 10.25c-.25 1.13-1.46 2-2.97 2.13h-8.06c-1.52-.13-2.73-1-2.97-2.13z" fill="#fff" stroke="#000" stroke-miterlimit="10" pointer-events="none"/><path d="M66.22 678.63c-.36-.13-.55-.56-.43-.95.12-.4.5-.61.85-.48 4.19 1.03 8.54 1.03 12.73 0 .26.08.47.3.56.59.08.29.03.6-.14.84a26.452 26.452 0 01-13.57 0m13.67-54.9l1.28 10.25c.24 1.51-.43 3.02-1.7 3.85-4.36.69-8.79.69-13.15 0a3.876 3.876 0 01-1.7-3.85l1.27-10.25c.25-1.13 1.46-2 2.97-2.13h8.06c1.52.13 2.73 1 2.97 2.13z" fill="#fff" stroke="#000" stroke-miterlimit="10" pointer-events="none"/><path d="M79.56 621.39c.36.13.55.56.43.95-.12.4-.5.61-.85.48a26.608 26.608 0 00-12.73 0 .873.873 0 01-.56-.59c-.08-.29-.03-.6.14-.84 4.46-1.18 9.11-1.18 13.57 0m-39.17 54.9l-1.28-10.25c-.24-1.51.43-3.02 1.7-3.85 4.36-.69 8.79-.69 13.15 0 1.27.83 1.94 2.34 1.7 3.85l-1.27 10.25c-.25 1.13-1.46 2-2.97 2.13h-8.06c-1.52-.13-2.73-1-2.97-2.13z" fill="#fff" stroke="#000" stroke-miterlimit="10" pointer-events="none"/><path d="M40.72 678.63c-.36-.13-.55-.56-.43-.95.12-.4.5-.61.85-.48 4.19 1.03 8.54 1.03 12.73 0 .26.08.47.3.56.59.08.29.03.6-.14.84a26.452 26.452 0 01-13.57 0m13.67-54.9l1.28 10.25c.24 1.51-.43 3.02-1.7 3.85-4.36.69-8.79.69-13.15 0a3.876 3.876 0 01-1.7-3.85l1.27-10.25c.25-1.13 1.46-2 2.97-2.13h8.06c1.52.13 2.73 1 2.97 2.13z" fill="#fff" stroke="#000" stroke-miterlimit="10" pointer-events="none"/><path d="M54.06 621.39c.36.13.55.56.43.95-.12.4-.5.61-.85.48a26.608 26.608 0 00-12.73 0 .873.873 0 01-.56-.59c-.08-.29-.03-.6.14-.84 4.46-1.18 9.11-1.18 13.57 0" fill="#fff" stroke="#000" stroke-miterlimit="10" pointer-events="none"/><path table fill="#fff" stroke="#000" pointer-events="none" d="M94.21 628.72H26.1v42.57h68.11z"/><text style="text-align:start;white-space:pre" x="48" y="663" transform="translate(0 -4.99)" font-size="20.736" stroke-width="1.944"><tspan>11</tspan></text></g><g data-table="8" transform="translate(245.664 -378.055)" style="text-align:start" font-weight="700" font-size="21.177" font-family="sans-serif"><path d="M405.853 438.61l14.873-3.138c2.182-.532 4.476.22 5.85 1.937a59.324 59.324 0 011.648 18.829c-1.056 1.929-3.184 3.079-5.426 2.924l-15.192-.508c-1.694-.203-3.13-1.824-3.51-3.97l-1.01-11.545c0-2.179 1.133-4.035 2.767-4.529zm-1.713 16.573l-3.702 3.465m3.398-6.942l-4.44 1.442m4.077-5.596l-4.654-.988m4.35-2.48l-4.278-3.118m.128-1.065a61.265 61.265 0 001.699 19.416l-2.267 2.999a61.498 61.498 0 01-2.185-24.965zm76.989-4.855l-12.053 9.084a5.646 5.646 0 01-6.092.688 60.2 60.2 0 01-9.52-16.49c.128-2.198 1.562-4.134 3.642-4.931l13.893-5.897c1.613-.526 3.601.358 4.86 2.16l5.83 10.097c.931 1.992.703 4.156-.56 5.29zm-5.524-15.828l1.854-4.708m-.1 7.747l3.39-3.169m-1.284 6.815l4.614-1.047m-2.864 4.078l5.184 1.06m.335 1.02a62.739 62.739 0 00-9.815-17l.76-3.684a62.733 62.733 0 0112.62 21.858z" fill="#fff" stroke="#000" stroke-linejoin="round" stroke-miterlimit="10" pointer-events="none"/><path d="M474.821 459.331l-15.192.508c-2.24.145-4.37-.995-5.425-2.924a59.325 59.325 0 011.647-18.828c1.375-1.717 3.67-2.48 5.85-1.938l14.874 3.139c1.633.494 2.767 2.34 2.767 4.518l-1.01 11.546c-.379 2.145-1.816 3.776-3.51 3.98zm4.564-16.023l4.248-2.77m-4.552 6.247l4.624-.65m-4.987 4.804l4.411 1.781m-4.715 1.686l3.672 3.814m-.31 1.027a61.265 61.265 0 001.698-19.416l2.753-2.56a61.498 61.498 0 01-2.184 24.965zm-18.856-44.181l-4.662 14.354a5.646 5.646 0 01-4.596 4.059 60.2 60.2 0 01-17.256-8.047c-1.156-1.874-1.092-4.283.155-6.129l7.998-12.799c1.019-1.356 3.155-1.773 5.22-1.02l10.568 4.928c1.904 1.098 2.958 3.002 2.574 4.654zm-13.603-9.797l-1.182-4.92m4.363 6.404l.959-4.54m2.856 6.319l3.18-3.505m-.007 4.984l4.854-2.106m.859.643a62.738 62.738 0 00-17.79-8.296l-1.491-3.453a62.733 62.733 0 0122.875 10.667zm-49.01 8.463l13.893 5.897a5.646 5.646 0 013.642 4.932 60.201 60.201 0 01-9.52 16.489c-1.968.988-4.362.715-6.092-.688l-12.053-9.084c-1.263-1.133-1.492-3.297-.561-5.289l5.83-10.098c1.26-1.801 3.248-2.685 4.86-2.159zm-10.946 12.699l-5.005.748m6.76-3.788l-4.44-1.35m6.545-2.296l-3.215-3.472m4.965.441l-1.675-5.02m.716-.799a62.738 62.738 0 00-9.815 17l-3.57 1.184a62.733 62.733 0 0112.62-21.859z" fill="#fff" stroke="#000" stroke-linejoin="round" stroke-miterlimit="10" pointer-events="none"/><path d="M437.375 406.217l7.998 12.799a5.646 5.646 0 01.155 6.129 60.2 60.2 0 01-17.256 8.046c-2.179-.319-3.983-1.916-4.596-4.058l-4.663-14.354c-.384-1.652.67-3.556 2.574-4.654l10.568-4.928c2.065-.753 4.201-.337 5.22 1.02zm-16.25 4.124l-4.528-2.258m7.71.774l-2.862-3.653m6.677 1.874l-.641-4.688m3.813 3.209l1.508-5.073m1.044-.244a62.739 62.739 0 00-17.79 8.296l-3.604-1.078a62.733 62.733 0 0122.875-10.667z" fill="#fff" stroke="#000" stroke-linejoin="round" stroke-miterlimit="10" pointer-events="none"/><ellipse table cx="-440.735" cy="441.247" rx="30.275" ry="31.294" fill="#fff" stroke="#000" transform="rotate(-90)" pointer-events="none" stroke-width=".976"/><text style="text-align:start;white-space:pre" x="440.667" y="447.944"><tspan x="440.667" y="447.944" style="-inkscape-font-specification:'sans-serif Bold';text-align:center" text-anchor="middle">8</tspan></text></g><g data-table="7" transform="translate(110 -378.99)" style="text-align:start" font-weight="700" font-size="21.177" font-family="sans-serif"><path d="M405.853 438.61l14.873-3.138c2.182-.532 4.476.22 5.85 1.937a59.324 59.324 0 011.648 18.829c-1.056 1.929-3.184 3.079-5.426 2.924l-15.192-.508c-1.694-.203-3.13-1.824-3.51-3.97l-1.01-11.545c0-2.179 1.133-4.035 2.767-4.529zm-1.713 16.573l-3.702 3.465m3.398-6.942l-4.44 1.442m4.077-5.596l-4.654-.988m4.35-2.48l-4.278-3.118m.128-1.065a61.265 61.265 0 001.699 19.416l-2.267 2.999a61.498 61.498 0 01-2.185-24.965zm76.989-4.855l-12.053 9.084a5.646 5.646 0 01-6.092.688 60.2 60.2 0 01-9.52-16.49c.128-2.198 1.562-4.134 3.642-4.931l13.893-5.897c1.613-.526 3.601.358 4.86 2.16l5.83 10.097c.931 1.992.703 4.156-.56 5.29zm-5.524-15.828l1.854-4.708m-.1 7.747l3.39-3.169m-1.284 6.815l4.614-1.047m-2.864 4.078l5.184 1.06m.335 1.02a62.739 62.739 0 00-9.815-17l.76-3.684a62.733 62.733 0 0112.62 21.858z" fill="#fff" stroke="#000" stroke-linejoin="round" stroke-miterlimit="10" pointer-events="none"/><path d="M474.821 459.331l-15.192.508c-2.24.145-4.37-.995-5.425-2.924a59.325 59.325 0 011.647-18.828c1.375-1.717 3.67-2.48 5.85-1.938l14.874 3.139c1.633.494 2.767 2.34 2.767 4.518l-1.01 11.546c-.379 2.145-1.816 3.776-3.51 3.98zm4.564-16.023l4.248-2.77m-4.552 6.247l4.624-.65m-4.987 4.804l4.411 1.781m-4.715 1.686l3.672 3.814m-.31 1.027a61.265 61.265 0 001.698-19.416l2.753-2.56a61.498 61.498 0 01-2.184 24.965zm-18.856-44.181l-4.662 14.354a5.646 5.646 0 01-4.596 4.059 60.2 60.2 0 01-17.256-8.047c-1.156-1.874-1.092-4.283.155-6.129l7.998-12.799c1.019-1.356 3.155-1.773 5.22-1.02l10.568 4.928c1.904 1.098 2.958 3.002 2.574 4.654zm-13.603-9.797l-1.182-4.92m4.363 6.404l.959-4.54m2.856 6.319l3.18-3.505m-.007 4.984l4.854-2.106m.859.643a62.738 62.738 0 00-17.79-8.296l-1.491-3.453a62.733 62.733 0 0122.875 10.667zm-49.01 8.463l13.893 5.897a5.646 5.646 0 013.642 4.932 60.201 60.201 0 01-9.52 16.489c-1.968.988-4.362.715-6.092-.688l-12.053-9.084c-1.263-1.133-1.492-3.297-.561-5.289l5.83-10.098c1.26-1.801 3.248-2.685 4.86-2.159zm-10.946 12.699l-5.005.748m6.76-3.788l-4.44-1.35m6.545-2.296l-3.215-3.472m4.965.441l-1.675-5.02m.716-.799a62.738 62.738 0 00-9.815 17l-3.57 1.184a62.733 62.733 0 0112.62-21.859z" fill="#fff" stroke="#000" stroke-linejoin="round" stroke-miterlimit="10" pointer-events="none"/><path d="M437.375 406.217l7.998 12.799a5.646 5.646 0 01.155 6.129 60.2 60.2 0 01-17.256 8.046c-2.179-.319-3.983-1.916-4.596-4.058l-4.663-14.354c-.384-1.652.67-3.556 2.574-4.654l10.568-4.928c2.065-.753 4.201-.337 5.22 1.02zm-16.25 4.124l-4.528-2.258m7.71.774l-2.862-3.653m6.677 1.874l-.641-4.688m3.813 3.209l1.508-5.073m1.044-.244a62.739 62.739 0 00-17.79 8.296l-3.604-1.078a62.733 62.733 0 0122.875-10.667z" fill="#fff" stroke="#000" stroke-linejoin="round" stroke-miterlimit="10" pointer-events="none"/><ellipse table cx="-440.735" cy="441.247" rx="30.275" ry="31.294" fill="#fff" stroke="#000" transform="rotate(-90)" pointer-events="none" stroke-width=".976"/><text style="text-align:start;white-space:pre" x="440.667" y="447.944"><tspan x="440.667" y="447.944" style="-inkscape-font-specification:'sans-serif Bold';text-align:center" text-anchor="middle">7</tspan></text></g><g data-table="6" transform="translate(-25 -378.99)" style="text-align:start" font-weight="700" font-size="21.177" font-family="sans-serif"><path d="M405.853 438.61l14.873-3.138c2.182-.532 4.476.22 5.85 1.937a59.324 59.324 0 011.648 18.829c-1.056 1.929-3.184 3.079-5.426 2.924l-15.192-.508c-1.694-.203-3.13-1.824-3.51-3.97l-1.01-11.545c0-2.179 1.133-4.035 2.767-4.529zm-1.713 16.573l-3.702 3.465m3.398-6.942l-4.44 1.442m4.077-5.596l-4.654-.988m4.35-2.48l-4.278-3.118m.128-1.065a61.265 61.265 0 001.699 19.416l-2.267 2.999a61.498 61.498 0 01-2.185-24.965zm76.989-4.855l-12.053 9.084a5.646 5.646 0 01-6.092.688 60.2 60.2 0 01-9.52-16.49c.128-2.198 1.562-4.134 3.642-4.931l13.893-5.897c1.613-.526 3.601.358 4.86 2.16l5.83 10.097c.931 1.992.703 4.156-.56 5.29zm-5.524-15.828l1.854-4.708m-.1 7.747l3.39-3.169m-1.284 6.815l4.614-1.047m-2.864 4.078l5.184 1.06m.335 1.02a62.739 62.739 0 00-9.815-17l.76-3.684a62.733 62.733 0 0112.62 21.858z" fill="#fff" stroke="#000" stroke-linejoin="round" stroke-miterlimit="10" pointer-events="none"/><path d="M474.821 459.331l-15.192.508c-2.24.145-4.37-.995-5.425-2.924a59.325 59.325 0 011.647-18.828c1.375-1.717 3.67-2.48 5.85-1.938l14.874 3.139c1.633.494 2.767 2.34 2.767 4.518l-1.01 11.546c-.379 2.145-1.816 3.776-3.51 3.98zm4.564-16.023l4.248-2.77m-4.552 6.247l4.624-.65m-4.987 4.804l4.411 1.781m-4.715 1.686l3.672 3.814m-.31 1.027a61.265 61.265 0 001.698-19.416l2.753-2.56a61.498 61.498 0 01-2.184 24.965zm-18.856-44.181l-4.662 14.354a5.646 5.646 0 01-4.596 4.059 60.2 60.2 0 01-17.256-8.047c-1.156-1.874-1.092-4.283.155-6.129l7.998-12.799c1.019-1.356 3.155-1.773 5.22-1.02l10.568 4.928c1.904 1.098 2.958 3.002 2.574 4.654zm-13.603-9.797l-1.182-4.92m4.363 6.404l.959-4.54m2.856 6.319l3.18-3.505m-.007 4.984l4.854-2.106m.859.643a62.738 62.738 0 00-17.79-8.296l-1.491-3.453a62.733 62.733 0 0122.875 10.667zm-49.01 8.463l13.893 5.897a5.646 5.646 0 013.642 4.932 60.201 60.201 0 01-9.52 16.489c-1.968.988-4.362.715-6.092-.688l-12.053-9.084c-1.263-1.133-1.492-3.297-.561-5.289l5.83-10.098c1.26-1.801 3.248-2.685 4.86-2.159zm-10.946 12.699l-5.005.748m6.76-3.788l-4.44-1.35m6.545-2.296l-3.215-3.472m4.965.441l-1.675-5.02m.716-.799a62.738 62.738 0 00-9.815 17l-3.57 1.184a62.733 62.733 0 0112.62-21.859z" fill="#fff" stroke="#000" stroke-linejoin="round" stroke-miterlimit="10" pointer-events="none"/><path d="M437.375 406.217l7.998 12.799a5.646 5.646 0 01.155 6.129 60.2 60.2 0 01-17.256 8.046c-2.179-.319-3.983-1.916-4.596-4.058l-4.663-14.354c-.384-1.652.67-3.556 2.574-4.654l10.568-4.928c2.065-.753 4.201-.337 5.22 1.02zm-16.25 4.124l-4.528-2.258m7.71.774l-2.862-3.653m6.677 1.874l-.641-4.688m3.813 3.209l1.508-5.073m1.044-.244a62.739 62.739 0 00-17.79 8.296l-3.604-1.078a62.733 62.733 0 0122.875-10.667z" fill="#fff" stroke="#000" stroke-linejoin="round" stroke-miterlimit="10" pointer-events="none"/><ellipse table cx="-440.735" cy="441.247" rx="30.275" ry="31.294" fill="#fff" stroke="#000" transform="rotate(-90)" pointer-events="none" stroke-width=".976"/><text style="text-align:start;white-space:pre" x="365" y="448"><tspan x="440.667" y="447.944" style="-inkscape-font-specification:'sans-serif Bold';text-align:center" text-anchor="middle">6</tspan></text></g><g data-table="5" transform="translate(-157 -378.99)" style="text-align:start" font-weight="700" font-size="21.177" font-family="sans-serif"><path d="M405.853 438.61l14.873-3.138c2.182-.532 4.476.22 5.85 1.937a59.324 59.324 0 011.648 18.829c-1.056 1.929-3.184 3.079-5.426 2.924l-15.192-.508c-1.694-.203-3.13-1.824-3.51-3.97l-1.01-11.545c0-2.179 1.133-4.035 2.767-4.529zm-1.713 16.573l-3.702 3.465m3.398-6.942l-4.44 1.442m4.077-5.596l-4.654-.988m4.35-2.48l-4.278-3.118m.128-1.065a61.265 61.265 0 001.699 19.416l-2.267 2.999a61.498 61.498 0 01-2.185-24.965zm76.989-4.855l-12.053 9.084a5.646 5.646 0 01-6.092.688 60.2 60.2 0 01-9.52-16.49c.128-2.198 1.562-4.134 3.642-4.931l13.893-5.897c1.613-.526 3.601.358 4.86 2.16l5.83 10.097c.931 1.992.703 4.156-.56 5.29zm-5.524-15.828l1.854-4.708m-.1 7.747l3.39-3.169m-1.284 6.815l4.614-1.047m-2.864 4.078l5.184 1.06m.335 1.02a62.739 62.739 0 00-9.815-17l.76-3.684a62.733 62.733 0 0112.62 21.858z" fill="#fff" stroke="#000" stroke-linejoin="round" stroke-miterlimit="10" pointer-events="none"/><path d="M474.821 459.331l-15.192.508c-2.24.145-4.37-.995-5.425-2.924a59.325 59.325 0 011.647-18.828c1.375-1.717 3.67-2.48 5.85-1.938l14.874 3.139c1.633.494 2.767 2.34 2.767 4.518l-1.01 11.546c-.379 2.145-1.816 3.776-3.51 3.98zm4.564-16.023l4.248-2.77m-4.552 6.247l4.624-.65m-4.987 4.804l4.411 1.781m-4.715 1.686l3.672 3.814m-.31 1.027a61.265 61.265 0 001.698-19.416l2.753-2.56a61.498 61.498 0 01-2.184 24.965zm-18.856-44.181l-4.662 14.354a5.646 5.646 0 01-4.596 4.059 60.2 60.2 0 01-17.256-8.047c-1.156-1.874-1.092-4.283.155-6.129l7.998-12.799c1.019-1.356 3.155-1.773 5.22-1.02l10.568 4.928c1.904 1.098 2.958 3.002 2.574 4.654zm-13.603-9.797l-1.182-4.92m4.363 6.404l.959-4.54m2.856 6.319l3.18-3.505m-.007 4.984l4.854-2.106m.859.643a62.738 62.738 0 00-17.79-8.296l-1.491-3.453a62.733 62.733 0 0122.875 10.667zm-49.01 8.463l13.893 5.897a5.646 5.646 0 013.642 4.932 60.201 60.201 0 01-9.52 16.489c-1.968.988-4.362.715-6.092-.688l-12.053-9.084c-1.263-1.133-1.492-3.297-.561-5.289l5.83-10.098c1.26-1.801 3.248-2.685 4.86-2.159zm-10.946 12.699l-5.005.748m6.76-3.788l-4.44-1.35m6.545-2.296l-3.215-3.472m4.965.441l-1.675-5.02m.716-.799a62.738 62.738 0 00-9.815 17l-3.57 1.184a62.733 62.733 0 0112.62-21.859z" fill="#fff" stroke="#000" stroke-linejoin="round" stroke-miterlimit="10" pointer-events="none"/><path d="M437.375 406.217l7.998 12.799a5.646 5.646 0 01.155 6.129 60.2 60.2 0 01-17.256 8.046c-2.179-.319-3.983-1.916-4.596-4.058l-4.663-14.354c-.384-1.652.67-3.556 2.574-4.654l10.568-4.928c2.065-.753 4.201-.337 5.22 1.02zm-16.25 4.124l-4.528-2.258m7.71.774l-2.862-3.653m6.677 1.874l-.641-4.688m3.813 3.209l1.508-5.073m1.044-.244a62.739 62.739 0 00-17.79 8.296l-3.604-1.078a62.733 62.733 0 0122.875-10.667z" fill="#fff" stroke="#000" stroke-linejoin="round" stroke-miterlimit="10" pointer-events="none"/><ellipse table cx="-440.735" cy="441.247" rx="30.275" ry="31.294" fill="#fff" stroke="#000" transform="rotate(-90)" pointer-events="none"/><text style="text-align:start;white-space:pre" x="440.667" y="447.944"><tspan x="440.667" y="447.944" style="-inkscape-font-specification:'sans-serif Bold';text-align:center" text-anchor="middle">5</tspan></text></g><g data-table="4" transform="translate(-289 -378.99)" style="text-align:start" font-weight="700" font-size="21.177" font-family="sans-serif"><path d="M405.853 438.61l14.873-3.138c2.182-.532 4.476.22 5.85 1.937a59.324 59.324 0 011.648 18.829c-1.056 1.929-3.184 3.079-5.426 2.924l-15.192-.508c-1.694-.203-3.13-1.824-3.51-3.97l-1.01-11.545c0-2.179 1.133-4.035 2.767-4.529zm-1.713 16.573l-3.702 3.465m3.398-6.942l-4.44 1.442m4.077-5.596l-4.654-.988m4.35-2.48l-4.278-3.118m.128-1.065a61.265 61.265 0 001.699 19.416l-2.267 2.999a61.498 61.498 0 01-2.185-24.965zm76.989-4.855l-12.053 9.084a5.646 5.646 0 01-6.092.688 60.2 60.2 0 01-9.52-16.49c.128-2.198 1.562-4.134 3.642-4.931l13.893-5.897c1.613-.526 3.601.358 4.86 2.16l5.83 10.097c.931 1.992.703 4.156-.56 5.29zm-5.524-15.828l1.854-4.708m-.1 7.747l3.39-3.169m-1.284 6.815l4.614-1.047m-2.864 4.078l5.184 1.06m.335 1.02a62.739 62.739 0 00-9.815-17l.76-3.684a62.733 62.733 0 0112.62 21.858z" fill="#fff" stroke="#000" stroke-linejoin="round" stroke-miterlimit="10" pointer-events="none"/><path d="M474.821 459.331l-15.192.508c-2.24.145-4.37-.995-5.425-2.924a59.325 59.325 0 011.647-18.828c1.375-1.717 3.67-2.48 5.85-1.938l14.874 3.139c1.633.494 2.767 2.34 2.767 4.518l-1.01 11.546c-.379 2.145-1.816 3.776-3.51 3.98zm4.564-16.023l4.248-2.77m-4.552 6.247l4.624-.65m-4.987 4.804l4.411 1.781m-4.715 1.686l3.672 3.814m-.31 1.027a61.265 61.265 0 001.698-19.416l2.753-2.56a61.498 61.498 0 01-2.184 24.965zm-18.856-44.181l-4.662 14.354a5.646 5.646 0 01-4.596 4.059 60.2 60.2 0 01-17.256-8.047c-1.156-1.874-1.092-4.283.155-6.129l7.998-12.799c1.019-1.356 3.155-1.773 5.22-1.02l10.568 4.928c1.904 1.098 2.958 3.002 2.574 4.654zm-13.603-9.797l-1.182-4.92m4.363 6.404l.959-4.54m2.856 6.319l3.18-3.505m-.007 4.984l4.854-2.106m.859.643a62.738 62.738 0 00-17.79-8.296l-1.491-3.453a62.733 62.733 0 0122.875 10.667zm-49.01 8.463l13.893 5.897a5.646 5.646 0 013.642 4.932 60.201 60.201 0 01-9.52 16.489c-1.968.988-4.362.715-6.092-.688l-12.053-9.084c-1.263-1.133-1.492-3.297-.561-5.289l5.83-10.098c1.26-1.801 3.248-2.685 4.86-2.159zm-10.946 12.699l-5.005.748m6.76-3.788l-4.44-1.35m6.545-2.296l-3.215-3.472m4.965.441l-1.675-5.02m.716-.799a62.738 62.738 0 00-9.815 17l-3.57 1.184a62.733 62.733 0 0112.62-21.859z" fill="#fff" stroke="#000" stroke-linejoin="round" stroke-miterlimit="10" pointer-events="none"/><path d="M437.375 406.217l7.998 12.799a5.646 5.646 0 01.155 6.129 60.2 60.2 0 01-17.256 8.046c-2.179-.319-3.983-1.916-4.596-4.058l-4.663-14.354c-.384-1.652.67-3.556 2.574-4.654l10.568-4.928c2.065-.753 4.201-.337 5.22 1.02zm-16.25 4.124l-4.528-2.258m7.71.774l-2.862-3.653m6.677 1.874l-.641-4.688m3.813 3.209l1.508-5.073m1.044-.244a62.739 62.739 0 00-17.79 8.296l-3.604-1.078a62.733 62.733 0 0122.875-10.667z" fill="#fff" stroke="#000" stroke-linejoin="round" stroke-miterlimit="10" pointer-events="none"/><ellipse table cx="-440.735" cy="441.247" rx="30.275" ry="31.294" fill="#fff" stroke="#000" transform="rotate(-90)" pointer-events="none" stroke-width=".976"/><text style="text-align:start;white-space:pre" x="440.667" y="447.944"><tspan x="440.667" y="447.944" style="-inkscape-font-specification:'sans-serif Bold';text-align:center" text-anchor="middle">4</tspan></text></g><g data-table="3" style="transform-origin:441.247px 433.904px;text-align:start" transform="rotate(-90 -323.604 64.127)" font-weight="700" font-size="21.177" font-family="sans-serif"><path d="M405.853 438.61l14.873-3.138c2.182-.532 4.476.22 5.85 1.937a59.324 59.324 0 011.648 18.829c-1.056 1.929-3.184 3.079-5.426 2.924l-15.192-.508c-1.694-.203-3.13-1.824-3.51-3.97l-1.01-11.545c0-2.179 1.133-4.035 2.767-4.529zm-1.713 16.573l-3.702 3.465m3.398-6.942l-4.44 1.442m4.077-5.596l-4.654-.988m4.35-2.48l-4.278-3.118m.128-1.065a61.265 61.265 0 001.699 19.416l-2.267 2.999a61.498 61.498 0 01-2.185-24.965zm76.989-4.855l-12.053 9.084a5.646 5.646 0 01-6.092.688 60.2 60.2 0 01-9.52-16.49c.128-2.198 1.562-4.134 3.642-4.931l13.893-5.897c1.613-.526 3.601.358 4.86 2.16l5.83 10.097c.931 1.992.703 4.156-.56 5.29zm-5.524-15.828l1.854-4.708m-.1 7.747l3.39-3.169m-1.284 6.815l4.614-1.047m-2.864 4.078l5.184 1.06m.335 1.02a62.739 62.739 0 00-9.815-17l.76-3.684a62.733 62.733 0 0112.62 21.858z" fill="#fff" stroke="#000" stroke-linejoin="round" stroke-miterlimit="10" pointer-events="none"/><path d="M474.821 459.331l-15.192.508c-2.24.145-4.37-.995-5.425-2.924a59.325 59.325 0 011.647-18.828c1.375-1.717 3.67-2.48 5.85-1.938l14.874 3.139c1.633.494 2.767 2.34 2.767 4.518l-1.01 11.546c-.379 2.145-1.816 3.776-3.51 3.98zm4.564-16.023l4.248-2.77m-4.552 6.247l4.624-.65m-4.987 4.804l4.411 1.781m-4.715 1.686l3.672 3.814m-.31 1.027a61.265 61.265 0 001.698-19.416l2.753-2.56a61.498 61.498 0 01-2.184 24.965zm-18.856-44.181l-4.662 14.354a5.646 5.646 0 01-4.596 4.059 60.2 60.2 0 01-17.256-8.047c-1.156-1.874-1.092-4.283.155-6.129l7.998-12.799c1.019-1.356 3.155-1.773 5.22-1.02l10.568 4.928c1.904 1.098 2.958 3.002 2.574 4.654zm-13.603-9.797l-1.182-4.92m4.363 6.404l.959-4.54m2.856 6.319l3.18-3.505m-.007 4.984l4.854-2.106m.859.643a62.738 62.738 0 00-17.79-8.296l-1.491-3.453a62.733 62.733 0 0122.875 10.667zm-49.01 8.463l13.893 5.897a5.646 5.646 0 013.642 4.932 60.201 60.201 0 01-9.52 16.489c-1.968.988-4.362.715-6.092-.688l-12.053-9.084c-1.263-1.133-1.492-3.297-.561-5.289l5.83-10.098c1.26-1.801 3.248-2.685 4.86-2.159zm-10.946 12.699l-5.005.748m6.76-3.788l-4.44-1.35m6.545-2.296l-3.215-3.472m4.965.441l-1.675-5.02m.716-.799a62.738 62.738 0 00-9.815 17l-3.57 1.184a62.733 62.733 0 0112.62-21.859z" fill="#fff" stroke="#000" stroke-linejoin="round" stroke-miterlimit="10" pointer-events="none"/><path d="M437.375 406.217l7.998 12.799a5.646 5.646 0 01.155 6.129 60.2 60.2 0 01-17.256 8.046c-2.179-.319-3.983-1.916-4.596-4.058l-4.663-14.354c-.384-1.652.67-3.556 2.574-4.654l10.568-4.928c2.065-.753 4.201-.337 5.22 1.02zm-16.25 4.124l-4.528-2.258m7.71.774l-2.862-3.653m6.677 1.874l-.641-4.688m3.813 3.209l1.508-5.073m1.044-.244a62.739 62.739 0 00-17.79 8.296l-3.604-1.078a62.733 62.733 0 0122.875-10.667z" fill="#fff" stroke="#000" stroke-linejoin="round" stroke-miterlimit="10" pointer-events="none"/><ellipse table cx="-440.735" cy="441.247" rx="30.275" ry="31.294" fill="#fff" stroke="#000" transform="rotate(-90)" pointer-events="none" stroke-width=".976"/><text style="text-align:start;white-space:pre;transform-box:fill-box;transform-origin:50% 50%" x="440.667" y="447.944" transform="rotate(90 0 0)"><tspan x="440.667" y="447.944" style="text-align:center" font-size="21.2" text-anchor="middle" word-spacing="0">3</tspan></text></g><g data-table="2" transform="rotate(-90 -269.774 116.957)" style="transform-origin:441.247px 434.424px;text-align:start" font-weight="700" font-size="21.177" font-family="sans-serif"><path d="M405.853 438.61l14.873-3.138c2.182-.532 4.476.22 5.85 1.937a59.324 59.324 0 011.648 18.829c-1.056 1.929-3.184 3.079-5.426 2.924l-15.192-.508c-1.694-.203-3.13-1.824-3.51-3.97l-1.01-11.545c0-2.179 1.133-4.035 2.767-4.529zm-1.713 16.573l-3.702 3.465m3.398-6.942l-4.44 1.442m4.077-5.596l-4.654-.988m4.35-2.48l-4.278-3.118m.128-1.065a61.265 61.265 0 001.699 19.416l-2.267 2.999a61.498 61.498 0 01-2.185-24.965zm76.989-4.855l-12.053 9.084a5.646 5.646 0 01-6.092.688 60.2 60.2 0 01-9.52-16.49c.128-2.198 1.562-4.134 3.642-4.931l13.893-5.897c1.613-.526 3.601.358 4.86 2.16l5.83 10.097c.931 1.992.703 4.156-.56 5.29zm-5.524-15.828l1.854-4.708m-.1 7.747l3.39-3.169m-1.284 6.815l4.614-1.047m-2.864 4.078l5.184 1.06m.335 1.02a62.739 62.739 0 00-9.815-17l.76-3.684a62.733 62.733 0 0112.62 21.858z" fill="#fff" stroke="#000" stroke-linejoin="round" stroke-miterlimit="10" pointer-events="none"/><path d="M474.821 459.331l-15.192.508c-2.24.145-4.37-.995-5.425-2.924a59.325 59.325 0 011.647-18.828c1.375-1.717 3.67-2.48 5.85-1.938l14.874 3.139c1.633.494 2.767 2.34 2.767 4.518l-1.01 11.546c-.379 2.145-1.816 3.776-3.51 3.98zm4.564-16.023l4.248-2.77m-4.552 6.247l4.624-.65m-4.987 4.804l4.411 1.781m-4.715 1.686l3.672 3.814m-.31 1.027a61.265 61.265 0 001.698-19.416l2.753-2.56a61.498 61.498 0 01-2.184 24.965zm-18.856-44.181l-4.662 14.354a5.646 5.646 0 01-4.596 4.059 60.2 60.2 0 01-17.256-8.047c-1.156-1.874-1.092-4.283.155-6.129l7.998-12.799c1.019-1.356 3.155-1.773 5.22-1.02l10.568 4.928c1.904 1.098 2.958 3.002 2.574 4.654zm-13.603-9.797l-1.182-4.92m4.363 6.404l.959-4.54m2.856 6.319l3.18-3.505m-.007 4.984l4.854-2.106m.859.643a62.738 62.738 0 00-17.79-8.296l-1.491-3.453a62.733 62.733 0 0122.875 10.667zm-49.01 8.463l13.893 5.897a5.646 5.646 0 013.642 4.932 60.201 60.201 0 01-9.52 16.489c-1.968.988-4.362.715-6.092-.688l-12.053-9.084c-1.263-1.133-1.492-3.297-.561-5.289l5.83-10.098c1.26-1.801 3.248-2.685 4.86-2.159zm-10.946 12.699l-5.005.748m6.76-3.788l-4.44-1.35m6.545-2.296l-3.215-3.472m4.965.441l-1.675-5.02m.716-.799a62.738 62.738 0 00-9.815 17l-3.57 1.184a62.733 62.733 0 0112.62-21.859z" fill="#fff" stroke="#000" stroke-linejoin="round" stroke-miterlimit="10" pointer-events="none"/><path d="M437.375 406.217l7.998 12.799a5.646 5.646 0 01.155 6.129 60.2 60.2 0 01-17.256 8.046c-2.179-.319-3.983-1.916-4.596-4.058l-4.663-14.354c-.384-1.652.67-3.556 2.574-4.654l10.568-4.928c2.065-.753 4.201-.337 5.22 1.02zm-16.25 4.124l-4.528-2.258m7.71.774l-2.862-3.653m6.677 1.874l-.641-4.688m3.813 3.209l1.508-5.073m1.044-.244a62.739 62.739 0 00-17.79 8.296l-3.604-1.078a62.733 62.733 0 0122.875-10.667z" fill="#fff" stroke="#000" stroke-linejoin="round" stroke-miterlimit="10" pointer-events="none"/><ellipse table cx="-455.39" cy="425.07" rx="30.276" ry="31.293" fill="#fff" stroke="#000" transform="rotate(-92.066) skewX(-.13)" pointer-events="none" stroke-width=".976"/><text style="text-align:start;white-space:pre;transform-origin:440.85px 440.459px" transform="rotate(90)"><tspan x="440.667" y="447.944" style="text-align:center" font-size="21.2" text-anchor="middle" word-spacing="0">2</tspan></text></g><g data-table="1" transform="rotate(-90 227.505 607.505)" style="text-align:start" font-weight="700" font-size="21.177" font-family="sans-serif"><path d="M405.853 438.61l14.873-3.138c2.182-.532 4.476.22 5.85 1.937a59.324 59.324 0 011.648 18.829c-1.056 1.929-3.184 3.079-5.426 2.924l-15.192-.508c-1.694-.203-3.13-1.824-3.51-3.97l-1.01-11.545c0-2.179 1.133-4.035 2.767-4.529zm-1.713 16.573l-3.702 3.465m3.398-6.942l-4.44 1.442m4.077-5.596l-4.654-.988m4.35-2.48l-4.278-3.118m.128-1.065a61.265 61.265 0 001.699 19.416l-2.267 2.999a61.498 61.498 0 01-2.185-24.965zm76.989-4.855l-12.053 9.084a5.646 5.646 0 01-6.092.688 60.2 60.2 0 01-9.52-16.49c.128-2.198 1.562-4.134 3.642-4.931l13.893-5.897c1.613-.526 3.601.358 4.86 2.16l5.83 10.097c.931 1.992.703 4.156-.56 5.29zm-5.524-15.828l1.854-4.708m-.1 7.747l3.39-3.169m-1.284 6.815l4.614-1.047m-2.864 4.078l5.184 1.06m.335 1.02a62.739 62.739 0 00-9.815-17l.76-3.684a62.733 62.733 0 0112.62 21.858z" fill="#fff" stroke="#000" stroke-linejoin="round" stroke-miterlimit="10" pointer-events="none"/><path d="M474.821 459.331l-15.192.508c-2.24.145-4.37-.995-5.425-2.924a59.325 59.325 0 011.647-18.828c1.375-1.717 3.67-2.48 5.85-1.938l14.874 3.139c1.633.494 2.767 2.34 2.767 4.518l-1.01 11.546c-.379 2.145-1.816 3.776-3.51 3.98zm4.564-16.023l4.248-2.77m-4.552 6.247l4.624-.65m-4.987 4.804l4.411 1.781m-4.715 1.686l3.672 3.814m-.31 1.027a61.265 61.265 0 001.698-19.416l2.753-2.56a61.498 61.498 0 01-2.184 24.965zm-18.856-44.181l-4.662 14.354a5.646 5.646 0 01-4.596 4.059 60.2 60.2 0 01-17.256-8.047c-1.156-1.874-1.092-4.283.155-6.129l7.998-12.799c1.019-1.356 3.155-1.773 5.22-1.02l10.568 4.928c1.904 1.098 2.958 3.002 2.574 4.654zm-13.603-9.797l-1.182-4.92m4.363 6.404l.959-4.54m2.856 6.319l3.18-3.505m-.007 4.984l4.854-2.106m.859.643a62.738 62.738 0 00-17.79-8.296l-1.491-3.453a62.733 62.733 0 0122.875 10.667zm-49.01 8.463l13.893 5.897a5.646 5.646 0 013.642 4.932 60.201 60.201 0 01-9.52 16.489c-1.968.988-4.362.715-6.092-.688l-12.053-9.084c-1.263-1.133-1.492-3.297-.561-5.289l5.83-10.098c1.26-1.801 3.248-2.685 4.86-2.159zm-10.946 12.699l-5.005.748m6.76-3.788l-4.44-1.35m6.545-2.296l-3.215-3.472m4.965.441l-1.675-5.02m.716-.799a62.738 62.738 0 00-9.815 17l-3.57 1.184a62.733 62.733 0 0112.62-21.859z" fill="#fff" stroke="#000" stroke-linejoin="round" stroke-miterlimit="10" pointer-events="none"/><path d="M437.375 406.217l7.998 12.799a5.646 5.646 0 01.155 6.129 60.2 60.2 0 01-17.256 8.046c-2.179-.319-3.983-1.916-4.596-4.058l-4.663-14.354c-.384-1.652.67-3.556 2.574-4.654l10.568-4.928c2.065-.753 4.201-.337 5.22 1.02zm-16.25 4.124l-4.528-2.258m7.71.774l-2.862-3.653m6.677 1.874l-.641-4.688m3.813 3.209l1.508-5.073m1.044-.244a62.739 62.739 0 00-17.79 8.296l-3.604-1.078a62.733 62.733 0 0122.875-10.667z" fill="#fff" stroke="#000" stroke-linejoin="round" stroke-miterlimit="10" pointer-events="none"/><ellipse table cx="-440.735" cy="441.247" rx="30.275" ry="31.294" fill="#fff" stroke="#000" transform="rotate(-90)" pointer-events="none" stroke-width=".976"/><text style="-inkscape-font-specification:'sans-serif Bold';text-align:start;white-space:pre;inline-size:0" x="440.667" y="447.944" transform="translate(0 -7.813)" writing-mode="tb-rl"><tspan x="440.667" y="447.944" style="-inkscape-font-specification:'sans-serif Bold';text-align:center" text-anchor="middle">1</tspan></text></g></svg>